<?xml version="1.0" encoding="utf-8"?>
<!-- Generator: Adobe Illustrator 21.1.0, SVG Export Plug-In . SVG Version: 6.00 Build 0)  -->
<svg version="1.1" id="Layer_1" xmlns="http://www.w3.org/2000/svg" xmlns:xlink="http://www.w3.org/1999/xlink" x="0px" y="0px"
	 viewBox="0 0 368.4 238.9" style="enable-background:new 0 0 368.4 238.9;" xml:space="preserve">
<style type="text/css">
	.st0{fill:#920075;}
	.st1{fill:#D0103A;}
</style>
<title>ERN logo RGB 1</title>
<path class="st0" d="M368.4,103.2c0,0-1.4-5-6.1-5.3c-5-0.2-6.6,5.8-6.2,6c1.5,1.3,3.4,2.1,5.4,2.1c0.1,1.5,0.5,4.3-3,7.9
	c0.5,1.1,1.7,1.6,2.8,1.3c2-2.7,2.8-6.1,2.2-9.4C365.2,105.4,366.9,104.5,368.4,103.2 M365.6,102.4c-0.1,0.5-0.7,0.9-1.2,0.7
	c-0.5-0.1-0.9-0.7-0.7-1.2c0.1-0.5,0.7-0.9,1.2-0.7c0,0,0,0,0.1,0C365.4,101.4,365.7,101.9,365.6,102.4 M362.3,100.2
	c-0.1,0.3-0.4,0.5-0.7,0.4c-0.3-0.1-0.5-0.4-0.4-0.7s0.4-0.5,0.7-0.4c0,0,0,0,0,0C362.3,99.6,362.4,99.9,362.3,100.2 M360.2,102.9
	c-0.1,0.5-0.7,0.9-1.2,0.7c-0.5-0.1-0.9-0.7-0.7-1.2c0.1-0.5,0.7-0.9,1.2-0.7c0,0,0,0,0.1,0C360.1,101.9,360.4,102.4,360.2,102.9"/>
<path class="st0" d="M46.8,229c0,0,0.3-2.5,0.6-5.2c2-1.7,3.4-4,3.9-6.6c-1.6,1-2.9,2.5-3.7,4.3c0.2-1.4,0.3-2.7,0.4-3.6
	c1.8-1.7,3-4,3.4-6.5c-2.2,1.5-3.6,3.8-3.9,6.4c-0.3,2.5-1.3,11.1-1.8,12.3c-0.7-3-2.8-5.6-5.7-6.8c0,0,4,4.8,4.3,7.5
	c-1.2-1.8-3.1-3.1-5.3-3.4c0,0,5.1,4.3,5.4,6.1c2.9-0.1,5.7,0.4,8.3,1.5c-1.2-2.2-3.7-3.3-6.1-2.8c0,0,5.2-3.3,11-2
	c0,0-5-3.1-10-0.1c0,0,3.9-5,8.3-7C56.1,223,49.5,224.6,46.8,229"/>
<path class="st0" d="M8.5,63.7c-0.5,0.6-1.1,1.4-1.4,1.8c0.1-1.9,0.6-3.8,1.5-5.4l0,0c0.1,0.2,0.2,0.4,0.4,0.5
	c1-0.4,1.8-1.2,2.4-2.1c0.7,0.6,1.6,1,2.5,1.3c0.6-1.1,0.8-2.3,0.5-3.5c1,0,1.9-0.2,2.8-0.6c-0.2-1-0.7-1.9-1.5-2.5
	c0.7-0.5,1.2-1.2,1.7-1.9c-0.8-0.7-1.9-1.1-3-1.2c0.3-0.8,0.4-1.7,0.4-2.6c-1.1-0.2-2.3,0-3.3,0.5c-0.3-0.7-0.7-1.4-1.2-2
	c-1,0.4-1.8,1.2-2.3,2.1c-0.8-0.6-1.6-1-2.5-1.2c-0.6,1-0.7,2.2-0.5,3.4c-0.9,0-1.8,0.1-2.6,0.4c0.2,1,0.6,1.9,1.3,2.6
	C3,53.6,2.5,54.2,2,54.9c0.9,0.8,2,1.3,3.2,1.4c-0.3,0.9-0.5,1.8-0.4,2.8c1,0.1,2,0,2.9-0.4c-0.9,1.9-1.4,3.9-1.5,6
	c-2.2-6-6.1-7-6.1-7c0.9,6.2,4.6,8,6,8.4c0,0.8,0.1,1.6,0.3,2.4c0,0,0.3,0,1.3,0.1c0,0-1.2-2.4,1.5-4.5c7.8,0.5,9.8-3.2,9.8-3.2
	C12.4,59.8,9.4,62.5,8.5,63.7 M4,54.6c-0.1,0.1,1.2-1.9,3-1.7c-0.1,0.8,0.2,1.5,0.7,2.1C6.6,55.7,5,55.5,4,54.6 M9,50.6
	c-0.8,0.2-1.4,0.7-1.8,1.4c-1.2-0.8-1.5-2.3-0.8-3.6C6.2,48.3,8.7,49,9,50.6 M11,55.4c0.3,1.3-0.4,2.7-1.7,3.2
	c0.1,0.1-1.3-1.6-0.7-3C9.4,55.9,10.3,55.8,11,55.4 M13.3,48.7c0-0.2,0.1,2.2-1.4,3c-0.3-0.4-0.7-0.7-1.1-0.9
	c-0.3-0.1-0.5-0.2-0.8-0.2C10.5,49.2,11.9,48.5,13.3,48.7 M15.2,54.9c0.2,0-2.1,0.9-3.4-0.1c0.5-0.6,0.7-1.4,0.5-2.1
	C13.7,52.6,14.9,53.5,15.2,54.9"/>
<path class="st0" d="M202.1,224.9c0,0-13.1-5.9-34.4,1.8c-1.4-0.3-2.7-0.7-4-1.3c-0.1,1-0.2,2-0.5,3c-0.9,0.4-1.8,0.8-2.7,1.2
	c-0.2-0.6-1.2-2.6-6.2-2.5c0,0,5.9,1.9,2.3,7.8c0,0,4.1-0.8,4.2-4.7c1.3,0.2,4,0.4,7.8,0.5c0.4,0.7,0.5,1.6,0.2,2.3
	c1.3-0.5,2.4-1.3,3.3-2.3c7.4,0,17-0.8,25.9-4.2c0.3,0.3,0.6,0.9,0.1,2c1.2-0.4,2-1.6,2-2.8C200.7,225.5,201.5,225.2,202.1,224.9
	 M195.7,225.2c0.1,0.7-0.4,1.3-1.1,1.4c-0.7,0.1-1.3-0.4-1.4-1.1c-0.1-0.7,0.4-1.3,1.1-1.4c0.1,0,0.1,0,0.2,0
	C195.1,224.1,195.7,224.6,195.7,225.2 M190.2,225.9c-3.1,2.6-19.7,2.6-19.7,2.6C182.5,223.9,190.2,225.9,190.2,225.9"/>
<path class="st0" d="M308,5.9c0.7-0.2,1.5,0.1,1.8,0.8l0,0c0.3,0.6,0.5,1.8,1.1,1.6c0.6-0.2,0.2-1.8,0.1-2.2V6l0,0V5.9
	c-0.1-1,0.5-1.9,1.4-2.2c0.6-0.2,1.2,0,1.5,0.5c0.4-1,1.2-1.8,2.2-2.1c0.7-0.2,1.4-0.1,2.1,0.3c0.7,0.3,1.2,0.9,1.4,1.6
	c0.3,1,0.1,2.1-0.5,3c0.6,0.1,1.1,0.4,1.2,1c0.3,0.9-0.1,1.9-1,2.4h-0.1h-0.1c-0.4,0.2-1.9,0.8-1.8,1.3s1.2,0.1,1.9,0l0,0
	c0.8-0.1,1.5,0.3,1.7,1.1c0.3,1-0.2,2.1-1.1,2.5c-0.1,0.1-0.2,0.1-0.3,0.1c-1.1,0.4-3.8,0.7-4.1,1.5s0.7,0.8,1,0.7
	c0.6-0.1,1.2,0.2,1.3,0.8c0.2,0.7-0.1,1.5-0.8,1.9c-0.2,0.1-0.4,0.1-0.6,0.1h-0.1c-1.3,0-2.6,0.1-3.9,0.4c-0.3,0.2-0.1,0.3,0,0.5
	c0.1,0.2,0.3,0.3,0.3,0.5c0.3,0.9-0.1,1.9-1,2.4c-0.7,0.5-1.7,0.3-2.2-0.4c-0.2,0.8-0.7,1.4-1.4,1.8c-0.5,0.3-1.1,0.3-1.7,0.1
	c-0.3,0.5-2.4,3-4.1,2.9c1.3-0.9,2.3-2.1,3.1-3.5c-0.5-0.3-0.8-0.8-0.9-1.4c-0.1-0.8,0.2-1.6,0.7-2.2c-0.8,0.1-1.4-0.7-1.6-1.6
	c-0.1-1,0.5-1.9,1.4-2.2c0.2,0,0.4,0,0.6,0c0.1,0,0.4,0.1,0.4-0.3c-0.5-1.2-1.2-2.3-1.9-3.4l0,0l0,0l0,0c-0.1-0.2-0.2-0.4-0.2-0.6
	c-0.1-0.8,0.4-1.5,1.1-1.7c0.6-0.2,1.2,0.1,1.4,0.7c0.2,0.3,0.8,1.1,1.2,0.4s-0.8-3.1-1.1-4.2c0-0.1-0.1-0.2-0.1-0.3
	C306.4,7.3,307,6.3,308,5.9 M310.1,10c0.8,2.4-0.4,6.2-0.8,7.8c0.1-1.1-0.5-2.2-1.4-2.8c0.9,1.3,0.5,5.1-0.4,7.3
	c1.4-2.1,3.5-3.6,5.9-4.1c0,0-0.9-0.9-3,0.2c1-1.2,3.5-4.4,5.9-5c-2-0.2-3.6,1.5-4.5,1.9l4.3-9l-5.1,8.6
	C310.9,13.8,311.3,11.6,310.1,10"/>
<path class="st0" d="M361.8,145.4c-0.2,0.8,0.3,1.6,1.1,1.7s1.6-0.3,1.7-1.1c0.2-0.8-0.3-1.5-1.1-1.7
	C362.7,144.1,362,144.6,361.8,145.4C361.8,145.4,361.8,145.4,361.8,145.4"/>
<path class="st0" d="M351.3,141.8c-0.2,0.8,0.3,1.6,1.1,1.7c0.8,0.2,1.6-0.3,1.7-1.1s-0.3-1.6-1.1-1.7c0,0,0,0,0,0
	C352.2,140.5,351.4,141,351.3,141.8"/>
<path class="st0" d="M352,135.9c-0.8-0.2-1.6,0.3-1.8,1.1s0.3,1.6,1.1,1.8c0.8,0.2,1.6-0.3,1.8-1.1c0,0,0,0,0,0
	C353.3,136.8,352.8,136.1,352,135.9"/>
<path class="st0" d="M355.1,129.4c-0.8-0.2-1.6,0.3-1.8,1.1c-0.2,0.8,0.3,1.6,1.1,1.8c0.8,0.2,1.6-0.3,1.8-1.1c0,0,0,0,0,0
	C356.4,130.4,355.9,129.6,355.1,129.4C355.1,129.4,355.1,129.4,355.1,129.4"/>
<path class="st0" d="M355.7,134.4c-0.8-0.2-1.6,0.3-1.8,1.1s0.3,1.6,1.1,1.8c0.8,0.2,1.6-0.3,1.8-1.1c0,0,0,0,0,0
	C356.9,135.3,356.4,134.6,355.7,134.4"/>
<path class="st0" d="M360.7,127.2c0.2-0.8-0.3-1.5-1.1-1.7c-0.8-0.2-1.5,0.3-1.7,1.1c-0.2,0.8,0.3,1.5,1.1,1.7
	C359.8,128.5,360.5,128,360.7,127.2C360.7,127.2,360.7,127.2,360.7,127.2"/>
<path class="st0" d="M364.1,129.5c0.2-0.8-0.3-1.6-1.1-1.7c-0.8-0.2-1.6,0.3-1.7,1.1c-0.2,0.8,0.3,1.6,1.1,1.7
	C363.2,130.7,364,130.2,364.1,129.5C364.1,129.5,364.1,129.5,364.1,129.5"/>
<path class="st0" d="M365.7,131.5c0,0-4.1-0.8-6.6,2.3c-0.5-2.4-1.4-4.6-2.8-6.6c1.3,4.9,1.6,9.9,0.9,14.9c-1.1-1.4-2.6-2.5-4.3-3.1
	c0,0,3.2,3.1,3.8,5.7c-0.5,2.2-1.5,4.4-2.9,6.2c0,0,0.2,1.6,2.9,1.2c0.2-0.9,1.3-3.7,2.1-7.4c2.8-1.5,5.9-2.2,9.1-2.1
	c0,0-6.4-1-8.7,0.1c0.3-2.1,0.4-4.3,0.3-6.5C360,135.2,361.8,131.4,365.7,131.5"/>
<path class="st0" d="M362,140.7c0.8,0.2,1.6-0.3,1.8-1.1s-0.3-1.6-1.1-1.8c-0.8-0.2-1.6,0.3-1.8,1.1c0,0,0,0,0,0
	C360.7,139.8,361.2,140.6,362,140.7"/>
<path class="st0" d="M365.9,135.4c0.2-0.8-0.3-1.5-1.1-1.7c-0.8-0.2-1.5,0.3-1.7,1.1c-0.2,0.8,0.3,1.5,1.1,1.7
	C364.9,136.7,365.7,136.2,365.9,135.4C365.9,135.4,365.9,135.4,365.9,135.4"/>
<path class="st0" d="M368.3,140c0.2-0.8-0.3-1.5-1.1-1.7c-0.8-0.2-1.5,0.3-1.7,1.1c-0.2,0.8,0.3,1.5,1.1,1.7
	C367.4,141.3,368.1,140.8,368.3,140C368.3,140,368.3,140,368.3,140"/>
<path class="st0" d="M11.4,117.7c0-0.1,0-0.2,0-0.3l2.8-3.1c0.1,0.1,0.3,0.1,0.4,0.1c0.3-0.1,0.5-0.4,0.5-0.7s-0.4-0.5-0.7-0.5
	c-0.3,0.1-0.5,0.4-0.5,0.7c0,0.1,0.1,0.2,0.1,0.2l-3.2,2.4l-1-3.6c0.1,0,0.2-0.1,0.2-0.2c0.2-0.2,0.2-0.5,0-0.8c0,0,0,0,0,0
	c-0.2-0.2-0.6-0.2-0.8,0c-0.2,0.2-0.2,0.5,0,0.8c0,0,0,0,0,0c0.1,0.1,0.3,0.2,0.4,0.2l0.4,3.9c-0.1,0.1-0.1,0.2-0.1,0.3
	c-1.8-3.9-5.4-6.6-9.6-7.3c-1.5,6.5,2.2,9.2,2.2,9.2c-2.8,5.7,4.9,7.9,5.9,5.2c-0.8,2.7,6.9,5,8-1.2c0,0,4.6-0.3,7.3-6.4
	C19.7,115,15.1,115.3,11.4,117.7 M17,118.5c-0.2-0.8,0.4-1.6,1.2-1.7c0.8-0.2,1.6,0.4,1.7,1.2c0.2,0.8-0.4,1.6-1.2,1.7
	c0,0,0,0-0.1,0C17.9,119.8,17.1,119.3,17,118.5C17,118.5,17,118.5,17,118.5 M10.9,120.1c-0.3,1.4-1.1,2.6-2.2,3.4
	c-0.5-1.3-0.4-2.7,0.2-4c0.7-1.5,1.4-1.8,1.6-1.8S11.3,118.2,10.9,120.1 M4.8,115c-0.6,0.6-1.5,0.6-2.1,0.1
	c-0.6-0.5-0.6-1.3-0.1-1.9c0,0,0.1-0.1,0.1-0.1c0.6-0.6,1.5-0.6,2.1-0.1C5.3,113.5,5.4,114.3,4.8,115C4.8,114.9,4.8,115,4.8,115"/>
<path class="st0" d="M22.5,78.5c0.1-0.4-0.2-0.7-0.6-0.8c-0.4-0.1-0.7,0.2-0.8,0.6c0,0,0,0,0,0c0,0.2,0,0.4,0.1,0.5l-3.1,2
	c-0.2-0.1-0.5-0.1-0.8-0.2c-0.4,0-0.7,0.1-1,0.3c-1.1-1-2.7-1.5-4.2-1.3c0-0.3-0.3-0.5-0.6-0.6c-0.4,0-0.7,0.3-0.7,0.7
	c0,0.3,0.2,0.6,0.6,0.7c0.4,0,0.7-0.2,0.7-0.6c1,0.3,2.8,1,3.4,2.1c0,0.1,0,0.2-0.1,0.3c-0.1,0.4-0.4,3.2-4,6.1
	c1.7-3.9-5.7-10.3-9.4-2.9c-2.8,0-4.1,6.7,2.1,6.6c-1.4,0.5-2.8,0.9-4.2,1.2c0,0,8.5,3.5,15.3-5.9c0,0,0.1,4.4-7.3,7.8
	c0,0,10.7-1,11.1-12.2c0-0.4,0-0.8-0.1-1.1l2.2-2.9c0.1,0.1,0.2,0.1,0.3,0.1C22.1,79.1,22.5,78.9,22.5,78.5"/>
<path class="st0" d="M368.4,47c0-1.2-1-2.2-2.2-2.2c-0.2-0.7-0.9-1.2-1.7-1.2c-0.9-0.1-1.7,0.6-1.8,1.5c-1.3,0.2-7.7,3.3-7.8,3.3
	c-3.8-1.4-7.2,1.8-6.9,5.5c0.4,5.5,5.2,6.3,7.2,6.4c3.1,0.1,5.9-1.3,6-4.7c0.1-4.7,5.8-6.5,5.8-6.5C368.2,48.5,368.4,48,368.4,47
	 M361.8,58.7l2.8,0.9c-0.1,0.1-0.1,0.2-0.1,0.3c0,0.4,0.3,0.8,0.7,0.8c0.4,0,0.8-0.3,0.8-0.7s-0.3-0.8-0.7-0.8c0,0,0,0,0,0
	c-0.2,0-0.3,0.1-0.5,0.2l-0.5-1l2.5-0.9c0.1,0.3,0.4,0.6,0.7,0.6c0.4,0,0.7-0.3,0.7-0.7s-0.3-0.7-0.7-0.7c0,0,0,0,0,0
	c-0.4,0-0.7,0.3-0.7,0.6l-2.7-0.8l0.2-1.2c0.1,0.1,0.3,0.1,0.4,0.1c0.4,0,0.7-0.3,0.7-0.7s-0.3-0.7-0.7-0.7c-0.4,0-0.7,0.3-0.7,0.7
	c0,0.2,0.1,0.4,0.2,0.5l-1.5,1C362.5,57.1,362.3,58,361.8,58.7 M366.4,46.9c0,0.6-0.4,1-0.9,1c-0.6,0-1-0.4-1-0.9s0.4-1,0.9-1
	c0,0,0,0,0,0C365.9,45.9,366.4,46.3,366.4,46.9 M358.2,54.2c0.1,1.9-1.4,3.6-3.4,3.6s-3.6-1.4-3.6-3.4c-0.1-1.9,1.4-3.6,3.4-3.6
	c0,0,0.1,0,0.1,0C356.6,50.8,358.2,52.3,358.2,54.2"/>
<path class="st0" d="M152.9,17.3l-9.9-1.7c-0.3-1-1.3-1.6-2.3-1.3c-0.4,0.1-0.8,0.4-1.1,0.7c-0.1,0-1.8-0.5-2.5-0.7
	c-1.3-0.8-2-2.4-1.8-3.9l0,0l0,0l0,0c0.2-1.4,1-2.7,2.3-3.4c0,0-1.9-4.1-3.1-5c-0.3,1.1-0.3,2.4,0,3.5c0,0-1.9-2.7-2.9-2.8
	c0.2,1.1,0.4,2.1,0.8,3.2c-2.3-0.9-5,0.2-5.9,2.6c-0.1,0.3-0.2,0.5-0.2,0.8c-0.3,1.6,0.3,3.2,1.5,4.2c-0.2,0.1-4.1,1.4-6.2,0.4
	c0,0,0.1,0.3,0.2,0.7c-0.8-0.2-2.5-0.6-3.3,0.6c0,0,2.2,1,3.4-0.1c0.1,0.4,0.2,0.9,0.2,1.3c-0.6-0.2-2.6-0.6-3.5,0.8
	c0,0,2.4,0.9,3.5-0.5c0,0.3,0,0.7-0.1,1c0,0,0.5-1.2,6-0.5c-0.2,2.2,1.4,3.7,3.7,4.1c0.3,0.1,0.6,0.1,0.9,0.1
	c-0.7,0.9-1.3,1.8-1.9,2.7c0.9,0.2,3.7-1.6,3.7-1.6c-0.7,0.9-1.2,2.1-1.3,3.2c1.4-0.4,4.6-3.5,4.6-3.5c-1.6-1.7-0.8-4.2-0.8-4.5
	c0.9-0.4,1.8-0.6,2.7-0.8c0.3,0.4,0.7,0.7,1.2,0.8c0.7,0.1,1.3-0.1,1.8-0.6C146.5,17.3,151.6,17.5,152.9,17.3 M141.9,16
	c-0.1,0.3-0.4,0.6-0.7,0.5s-0.6-0.4-0.5-0.7l0,0c0.1-0.3,0.4-0.6,0.7-0.5S142,15.7,141.9,16 M138.1,15.9c0,0-3.4,2.7-11.2-0.4
	C130.9,12.4,138.1,15.9,138.1,15.9"/>
<path class="st0" d="M368.1,79.6c-1.2-2.7-4.5-0.5-4.5-0.5s-11.5-13.5-21.2-10.7c0.4,1.4,1.6,2.4,3,2.7c0,0-2,0.7-2.4,1.3
	c0,0,0.3,1.3,3.1,1.8c-0.7,0.4-1.3,0.9-1.8,1.6c0,0,0.7,1.4,3.6,1.5c-0.5,0.2-1,0.6-1.4,1.1c0,0,0.4,4.2,11.7,4.7
	c-0.2,0.5-0.5,1.1-0.6,1.6l-7.2,0.7c0,0-0.6,4.1,1.7,4.8l6-3.4c4.9-0.4,6-1.2,7.9-4.5c1.1,0.1,1,0.8,1.2,1.7
	C368.4,82.8,368.7,81.1,368.1,79.6 M364.1,87c0.8,0.9,1.4,1.9,1.5,3.1C365.6,90.1,368.5,85.5,364.1,87 M361.2,87.9
	c1,0.8,1.7,1.8,2,3C363.2,90.9,365.2,85.9,361.2,87.9 M366.5,80.3c0,0.4-0.3,0.7-0.7,0.7c-0.4,0-0.7-0.3-0.7-0.7
	c0-0.4,0.3-0.7,0.7-0.7l0,0C366.1,79.6,366.5,79.9,366.5,80.3 M360.8,80.1c-10.1,3-11.2-7.7-11.2-7.7
	C355.6,74.2,360.8,80.1,360.8,80.1"/>
<path class="st0" d="M137.6,215.6c-1.4-1.4-3.6-1.7-5.4-0.9c-1.2,0.6-2.1,1.8-2.4,3.1c-0.3,1.4-1.3,2.6-2.6,3.2
	c-1.5,0.6-3.3,0.3-4.6-0.7c-1-0.9-2.4-1.3-3.8-1c-1.9,0.6-3.3,2.2-3.7,4.2c-0.5,2.2-0.8,7.8,3.2,10.2c0,0-1.6-3-0.9-4.3
	c0,0,1.3,5,3,5.6c0,0-0.6-4.4,0.2-6c0.7,0.9,1.5,1.8,2.3,2.6c-0.8-2.7,0.2-5.6,2.6-7.3c0.9,1.2,1,2.7-1.6,4.4c0.5,0,0.8,0.4,0.8,0.9
	c0,0.1,0,0.2-0.1,0.3c0,0,1.2-0.8,1.7,0.4l1-0.6c0.6,0.5,0.9,1.4,0.6,2.1c0,0,2-1.4,0.5-3.1c0.7-0.5,0.8-0.6,1.3-0.9
	c0.7,0.6,1,1.5,0.8,2.4c0,0,2-1.5,0.6-3.2c0.5,0.2,1.1,0,1.3-0.4c0.3,0.2,0.3,0.6,0.3,1.2c0,0,1.7-1.3,0.2-2.4c0,0,0-0.1,0-0.1
	c0-0.6-0.4-1.1-1-1.2l0.1-0.8c2,0.5,3.7,1.9,4.7,3.6l0.2-3.4c1.7,0.7,3.8,4.6,3.8,4.6c0.9-1.3-1.1-6.2-1.1-6.2
	c1.3,0.6,1.9,3.9,1.9,3.9C143.1,221.1,140.6,217.9,137.6,215.6 M131.9,225.2c0.1,0.3-0.1,0.6-0.4,0.7c0,0,0,0,0,0
	c-0.3,0.1-0.6-0.1-0.7-0.4c0,0,0,0,0,0c-0.1-0.3,0.1-0.6,0.4-0.7c0,0,0,0,0,0C131.5,224.7,131.8,224.9,131.9,225.2
	C131.9,225.2,131.9,225.2,131.9,225.2 M130.5,222.9l0.1,1.2c-0.5,0.3-0.8,0.7-0.8,1.3c-1.3,0.4-1.6,0-2.4-1.9
	C127.4,223.4,128.2,222.9,130.5,222.9"/>
<path class="st0" d="M367.2,6.3c0,0-7.4-2.3-9.8,5.5c-0.7,0.8-1.7,1.1-2.7,0.8c-1.1-5-2-6.6-3.3-7.2c1-0.1,1.6-1,1.5-1.9
	s-1-1.6-1.9-1.5c-1,0.1-1.6,1-1.5,1.9c0.1,0.5,0.4,1,0.8,1.3c-0.5,0.2-2,1.2-0.8,7.7c-0.3-0.4-2.7-0.6-3.3-0.6c-3.5,0-6.6,2.1-7,5.6
	c0,0.1,0,0.2,0,0.4c-0.6,1-1.9,4.6-4.1,3.1c-2.1-1.8,0.4-5.1,0.4-5.1c-2.5,0.2-4.8,3.2-3.3,5.5c-0.6,0-1.2-0.3-1.5-0.9
	c-0.7,3.1,6.7,7.3,8.6-0.9c0.3,1.3,1,2.4,2,3.3c0.5,1.7,0.9,4.7-0.4,5.8c0,0,1.5,3,0.6,4.7c0.5,0.5,1.4,0.6,2,0.2
	c-1.1-3.5-0.4-7.4,1.8-10.3c0.3,0.1,0.5,0.1,0.8,0.1c0.6,2-0.9,5.1-0.9,5.1c1.9,3.2,1.7,4.2,1.7,4.2c1.4,0.8,2,0,2,0
	c-3.6-4.4,0.1-7.8,1-9.1c2.2,0.4,6.7-0.2,7.5-1.1c1.6,3,2.5,6.3,2.6,9.7c0.7,0.4,1.5,0.3,2.2-0.1c-2.1-3.1-1.4-7-1.4-9.7
	c3.9-0.2,2.3,3.9,2,5.5c1.5,0.9,2.1,0.4,2.1,0.4c-0.9-2.8,0.7-3.9,0.2-6.1c-0.6-1-1.5-1.9-2.5-2.6c1.8-1.9,2.1-4,0.9-7.4
	c0.7-0.1,1.5,0,2.1,0.4c-0.1,0.8,0.5,1.5,1.3,1.5c0.8,0.1,1.5-0.5,1.5-1.3c0-0.5-0.2-0.9-0.5-1.2c0.3-0.9-0.9-3.5-1.8-4.4L367.2,6.3
	z M365.2,9.4c0.1,0.7-0.4,1.3-1.1,1.4c-0.7,0.1-1.3-0.4-1.4-1.1c-0.1-0.7,0.4-1.3,1.1-1.4C364.5,8.2,365.1,8.7,365.2,9.4 M355,15.6
	c1.5,5.2-1.8,6.2-4.7,5.4s-2.2-5.4-2.2-5.4C350.8,16.4,355,15.5,355,15.6"/>
<path class="st0" d="M55,14.8c0.9,3,3.1,11.8,4.2,16.4c0,0.3,0.6,0.2,0.7,0c-0.1-0.6-3.9-18-3.9-18c-0.3-0.5-0.9-0.8-1.5-0.7
	c-0.3,0-0.6,0.1-0.9,0.2c-0.1-1.9-0.5-3.9-1.1-5.7c1.1-0.3,1.9-1.3,1.9-2.5C54.4,3.2,53.4,2,52,1.9c-1.4-0.1-2.5,0.9-2.6,2.3
	c0,0.1,0,0.2,0,0.3c0,0.6,0.2,1.3,0.7,1.7c-0.8,0.8-1.5,1.6-2.1,2.5c-0.9-0.4-1.9-0.1-2.5,0.6c-0.8,1.1-1.1,2.5-0.9,3.9
	c0,0,0.3,2,2.1,1.6c-0.1,2.2,0.1,4.4,0.8,6.6c-0.6,0.7-2,2.1-5.5,3.8c-0.1,2,0.8,3.9,2.4,5c-0.4-1.3-0.2-2.7,0.3-3.9
	c1.6,0.3,3.2-0.1,4.4-1.1c1.1,2.1,1.5,4.5,1.2,6.8c1.9,0.5,3.9,0.4,5.6-0.3c0,0-2.9-0.4-3.4-1.8c0.6-0.9,1.6-6.8-0.1-10.6
	c0.6-1.5,1-3,1.3-4.6C54,14.9,54.5,15,55,14.8"/>
<path class="st0" d="M320.2,208c0-1.2-1-2.1-2.1-2.1c-1.2,0-2.1,1-2.1,2.1c0,1.2,1,2.1,2.1,2.1S320.2,209.2,320.2,208
	C320.2,208,320.2,208,320.2,208 M321.5,220.7L321.5,220.7l0.3-0.6h2.8l0.6-1.2h-4l-0.9,1.8h-1.1c0.5-1.5,0.6-2.8-0.3-3.3
	c1.4,0.4,2.9,0.6,4.4,0.4c0,0-6-2.9-5.9-7l-1.5-0.7c0,0-4.9,2.2-3.5,7c0.6,2,4.3,2.6,4.3,2.6l-0.5,0.9h-3.9l0.9-1.8h-3.5l-0.6,1.2
	h2.3l-1.6,3.4c-3-1.1-6.4,0.4-7.6,3.4s0.4,6.4,3.4,7.6s6.4-0.4,7.6-3.4c0.1-0.2,0.1-0.4,0.2-0.6c0.8,1,2.2,1.1,3.2,0.3
	c0.4-0.3,0.7-0.8,0.8-1.3l0,0l1.6-3.6l1.9-4l1,2.1c-2.7,1.7-3.6,5.4-1.8,8.1s5.4,3.6,8.1,1.8c2.7-1.7,3.6-5.4,1.8-8.1
	c-1.5-2.4-4.5-3.4-7.1-2.3L321.5,220.7z M309.4,224.5l-1.5,3.3h-0.1c-0.7,0-1.3,0.6-1.3,1.3c0,0.7,0.6,1.3,1.3,1.3
	c0.5,0,1-0.3,1.2-0.8h3.5c-0.3,2.6-2.7,4.5-5.3,4.2c-2.6-0.3-4.5-2.7-4.2-5.3c0.3-2.6,2.7-4.5,5.3-4.2
	C308.7,224.3,309.1,224.4,309.4,224.5 M310.4,225.1c1.2,0.8,1.9,2,2.1,3.4h-3.6v-0.1L310.4,225.1z M322.4,225.1l1.6,3.4
	c-0.1,0.2-0.1,0.4-0.1,0.6c0,0.7,0.6,1.3,1.3,1.3s1.3-0.6,1.3-1.3s-0.6-1.3-1.3-1.3l0,0c-0.1,0-0.2,0-0.3,0l-1.5-3.2
	c2.5-0.9,5.2,0.3,6.2,2.8c0.9,2.5-0.3,5.2-2.8,6.2c-2.5,0.9-5.2-0.3-6.2-2.8C319.8,228.7,320.5,226.4,322.4,225.1 M315.7,221.9
	l-0.7,1.4l-0.3,3.6c-0.4,0.1-0.8,0.4-1.1,0.7c-0.4-1.5-1.3-2.8-2.6-3.6l1-2.1L315.7,221.9z M319.8,221.9l-1,2.1l-1.8,3.7
	c-0.3-0.4-0.7-0.6-1.1-0.8c1.1-1.6,2.1-3.3,2.9-5.1L319.8,221.9z"/>
<path class="st0" d="M24.8,139.6c0.1-0.6-0.1-1.2-0.4-1.7c0.3-0.7,0.3-1.6,0-2.3c0,0-1-0.2-2,1.5c-0.2,0-0.5,0-0.7,0
	c-0.2,0-0.4,0.1-0.6,0.1c-0.2-0.6-0.7-1.1-1.4-1.4c0,0-0.9,0.5-0.6,2.5c-1,0.9-2.3,2.1-6.6,2.7c-3.3,0.5-11.4-2.1-11.1,5
	c-1.6,2.1-1.9,5-0.9,7.4c0.6-1.4,1.5-2.6,2.6-3.7c0.4,1.5-1,3.3-1,3.3c-0.4,2.1,0.5,4.3,2.3,5.5c0.9,0.4,1.9-0.6,0.9-1.1
	c-3-1.5-1.3-3.9-1.3-3.9c0.6-0.2,1.2-0.5,1.8-0.8c0.3,1.7,1,5.6,3.2,4.7c0.7-0.3,0.3-1.1-0.1-1.2c-0.7-0.1-2-0.2-1.2-4.6
	c0.5-0.5,0.9-1.2,1-2c2,0.8,4.1,1,6.2,0.6c0.2,1.5,1.2,6.9,2.7,7.7c1.2,0.6,1.9-0.1,1.5-0.8s-3-1.3-1.7-7.6h0.1
	c0.1,1.5,0.5,6,2.6,7.6c1.1,0.8,1.9-0.2,1.5-0.8s-5.9-3.2,1.6-13.1c1.3,0,2.6-0.8,3.1-2C26.2,141.3,24.9,140.5,24.8,139.6 M23,139.8
	c0,0.6-0.4,1.1-1.1,1.2c-0.6,0-1.1-0.4-1.2-1.1c0-0.6,0.4-1.1,1.1-1.2c0,0,0,0,0,0C22.4,138.7,23,139.2,23,139.8
	C23,139.8,23,139.8,23,139.8"/>
<path class="st0" d="M189.5,7.8c0,0-1.4-1.6-2.7-3.5c-0.1-0.8-0.1-1.5-0.1-2.3c0,0-2.5,1.3-2.7,2.9c-2.3,1-5.2,3-9.2,2.6
	c-6-0.9-10.4-0.2-11.4,3.2c-0.3,1.1-0.4,2.3-0.1,3.4c0.6-0.4,1-1,1.3-1.7c0.3,0.2,0.6,0.4,1,0.6c-0.3,1.5-1.3,2.9-2.6,3.7
	c0,0-2.4,4.3,0.4,5.4c0.2,0.2,1.5,0.2,1.6-0.7c0-0.6-0.5-1.1-1.1-1.1c-0.2,0-0.3,0-0.5,0.1c0,0-0.4-2.1,3.3-3.5c0,0-0.7,3.9,1.3,5.2
	c0.7,0.5,1.9,0.6,2.1-0.4s-0.9-1.3-1.6-1c-0.4-1.4,0.2-2.8,1.4-3.6c0.8-0.5,1.4-1.1,1.9-1.9c2.3,0.5,4.7,0.3,6.9-0.4
	c-0.2,2.3-0.1,6.2,2.1,7c0.6,0.2,1.4,0,1.4-0.6c-0.1-1.3-1.6-1.2-1.6-1.2s-0.3-4.2,1-5.7c0.5,2.8,1.2,6.1,3,6.9
	c0.7,0.2,1.5-0.1,1.5-0.7s-0.9-1-1.6-0.9c0,0-1.7-4.9,0.3-8.9c0.6,0.4,1.3,0.6,2.1,0.7c-0.2-0.4-0.3-0.9-0.2-1.3
	C188.1,10,189.1,9.1,189.5,7.8 M186.8,7.1c0,0.6-0.6,1.1-1.2,1s-1.1-0.6-1-1.2s0.6-1.1,1.2-1c0,0,0,0,0,0
	C186.4,5.9,186.8,6.5,186.8,7.1 M180.7,9.7c0,0.4-0.3,0.6-0.7,0.6c-0.4,0-0.6-0.3-0.6-0.7c0-0.4,0.3-0.6,0.7-0.6
	C180.4,9.1,180.7,9.4,180.7,9.7C180.7,9.7,180.7,9.7,180.7,9.7 M178.9,12.4c0,0.4-0.3,0.6-0.7,0.6c-0.4,0-0.6-0.3-0.6-0.7
	c0-0.4,0.3-0.6,0.7-0.6C178.7,11.8,179,12.1,178.9,12.4C178.9,12.4,178.9,12.4,178.9,12.4 M176.5,10.3c0,0.4-0.3,0.6-0.7,0.6
	c-0.4,0-0.6-0.3-0.6-0.7c0-0.4,0.3-0.6,0.7-0.6C176.3,9.6,176.6,9.9,176.5,10.3C176.5,10.3,176.5,10.3,176.5,10.3 M173.9,12.7
	c0,0.4-0.3,0.6-0.7,0.6c-0.4,0-0.6-0.3-0.6-0.7c0-0.4,0.3-0.6,0.7-0.6C173.7,12.1,173.9,12.4,173.9,12.7
	C173.9,12.7,173.9,12.7,173.9,12.7 M172.2,9.9c0,0.4-0.3,0.6-0.7,0.6c-0.4,0-0.6-0.3-0.6-0.7c0-0.4,0.3-0.6,0.7-0.6
	C172,9.2,172.3,9.5,172.2,9.9C172.3,9.9,172.3,9.9,172.2,9.9 M168.2,10.2c0,0.4-0.3,0.6-0.7,0.6c-0.4,0-0.6-0.3-0.6-0.7
	c0-0.4,0.3-0.6,0.7-0.6C168,9.6,168.3,9.9,168.2,10.2C168.2,10.2,168.2,10.2,168.2,10.2"/>
<path class="st0" d="M28.4,219.9c-1.2-0.6-2.3-1.5-3.1-2.6c0.1-0.3,0.2-0.5,0.3-0.8c0-0.8-0.6-1.4-1.4-1.4c-0.6,0-1.2,0.4-1.3,1.1
	c-0.1-0.8-0.8-1.3-1.5-1.2c-0.7,0.1-1.2,0.6-1.2,1.3l0,0c0,0.1,0,0.2,0,0.4c-1.3-1.9-3.9-2.4-5.8-1.2c-0.5,0.3-0.9,0.8-1.2,1.3
	c-3-1.4-9.7-2.9-12.4,3.7c-2.6,6.4,3.6,14.4,8,14.5c3.2,0,2.6-2.2,0.8-2.1c-0.3-2.1,0.9-4.2,2.8-5.1c0.8,1.6,2.2,5.7,5.8,6.6
	c2.5,0.6,3.8-1.7,1.3-2c0,0,0-9,8.3-10.5C28.3,221.4,28.6,220.6,28.4,219.9 M24.5,219.6c0,0.6-0.5,1.2-1.1,1.2
	c-0.6,0-1.2-0.5-1.2-1.1c0-0.6,0.5-1.2,1.1-1.2c0,0,0,0,0,0C23.9,218.4,24.4,218.9,24.5,219.6C24.4,219.6,24.5,219.6,24.5,219.6"/>
<path class="st0" d="M19.2,176.6c0-1,0.6-12.1-10.3-9.6c0,0,9.9-0.2,7.6,8.4c-0.7-0.1-1.5,0.2-2,0.7c-1.2,1-2,3.1-3.4,5.5
	c-2.1,0-4.1,0.2-6.1,0.8c-4.4,1.7-5.8,5.1-4.7,7.8c0.2,0.6,0.6,1.1,1.1,1.5c-0.4,3.7,0.8,7.4,3.4,10.1c0.3,0.2,0.8,0.1,1-0.3
	c-0.9-1-1.5-2.2-1.7-3.5c2.1-1.2,3.6-3.3,4.2-5.6c0.5-0.1,0.9-0.3,1.4-0.5c0.6,2.2,0.8,4.5,0.6,6.8c0.3,0.2,0.7,0.2,1-0.1
	c0,0-0.6-2.2,2.2-9.2c1.1-0.9,1.9-2.1,2.2-3.5c0.4-1.4,0.8-2.8,1.1-4.2c0,0,2.3,1.6,3.5-0.5c-1-1.8-1.4-2.1-1.2-4.4l0,0L19.2,176.6
	 M18.3,178.7c0,0.6-0.5,1.1-1.1,1.1c-0.6,0-1.1-0.5-1.1-1.1c0-0.6,0.5-1.1,1.1-1.1C17.8,177.6,18.3,178.1,18.3,178.7
	C18.3,178.7,18.3,178.7,18.3,178.7 M3.8,196.6c-0.4-1.3-0.2-2.7,0.5-3.9c0.2,0,0.5,0,0.8,0C5.2,194.1,4.8,195.6,3.8,196.6
	 M11.6,168.4c-0.8,0.2-1.4,0.7-1.9,1.3c3.4-2.1,6,3.7,6,3.7C15.6,169.4,13.2,168.2,11.6,168.4"/>
<path class="st0" d="M363.6,161.9c0,0-11-0.1-10.2,9.3c-0.2,0.7-0.6,1.3-1.1,1.8c-1,1.1-1.4,1.6-3.8,1.6h-0.5
	c-3.6,0.1-6.3,3.4-6.4,7.3c-0.1,0.7,0,1.3,0.2,1.9l0,0c0.6,1.8,1.2,3.5-0.8,4.9s-3.3-1.4-3.3-1.4c-0.9,2.5,0,4.4,2.2,3.9
	c-0.2,0.5-0.6,0.9-1,1.1c1.8,0.8,3.4,0.1,4.5-2.3c0.5-1.3,0.6-2.7,0.2-4c0.3,0.2,0.7,0.3,1.1,0.4c0.7,1.6,1.7,4.6,0.5,5.9
	c0,0,2,2.8,1.4,4.7c0.6,0.4,1.4,0.4,2-0.1c-1.3-3.5-1.2-7.3,0.3-10.8c0.3,0,0.6,0,0.8-0.1c1,2,0,5.4,0,5.4c2.8,3.4,2.8,5.1,2.8,5.1
	c1.6,0.8,2.1-0.3,2.1-0.3c-2.3-2-2.2-5.6-2.2-5.6c0.1-2.1,0.6-4.1,1.6-5.9c1.9-0.5,3.8-1.3,5.6-2.3c5.8,1.7,2,4.8,2,4.8
	c0.3,1.5,1.5,1.2,1.5,1.2c3-4.9-0.1-7.1-1.3-7.7c0.2-0.2,0.4-0.5,0.5-0.8c7.4-0.3,4.4,4.7,4.4,4.7c0.9,0.9,1.6,0.3,1.6,0.3
	c1.4-6.6-3.3-7.2-5.3-7.8c0-0.2,0-0.3,0-0.5c-0.1-1.4-0.6-2.7-1.5-3.8c0.4-1,0.5-2,0.4-3.1c0.6,0.4,1.2,0.6,1.8,0.9
	c0.3,0.8,1.2,1.3,2.1,1c0.8-0.3,1.3-1.2,1-2.1c-0.2-0.5-0.5-0.8-1-1c-0.1-1.1,0.1-2.4-2.7-4.9L363.6,161.9z M362.4,166.4
	c0,0.7-0.5,1.3-1.2,1.3c-0.7,0-1.3-0.5-1.3-1.2s0.5-1.3,1.2-1.3c0,0,0,0,0,0C361.8,165.1,362.4,165.7,362.4,166.4
	C362.4,166.4,362.4,166.4,362.4,166.4"/>
<path class="st0" d="M359.8,224.9c4-2,4.1-7.9,4.1-9.5c0.7-0.2,1.4-0.4,2-0.6c0.5,0.6,1.3,0.7,1.9,0.3s0.7-1.3,0.3-1.9
	c-0.3-0.3-0.7-0.5-1.1-0.6c-0.9-1.5-2.8-3.5-3.9-3.3c0.1-1.6-0.3-2.9-2.6-3.9c0,0-2,3.2,0.9,4.8c-1.6,1.5-2.1,4.4-2.2,5.6
	c-3.9,0.4-7.9,0.1-11.8-0.7c-5-1.2-6.5,4.3-6.5,4.8c0.4,1.3,1.1,2.4,2,3.4c-0.3,1.5-1.4,2.8-2.8,3.5c0,0,1.9,5.9,1.4,7.8
	c0.5,0.5,1.3,0.5,1.8,0.1c0,0-2-4.3-0.4-7c0,0,2.9,4.1,2.7,7c0.6,0.4,1.4,0.4,2-0.1c0,0-4-6.1-0.5-10.1c1.9,0.7,3.9,1.1,5.9,1.2
	c0.3,1,0.7,1.9,1.2,2.8c-0.1,1.9-0.6,3.7-1.5,5.3c0.2,0.8,1,1.2,1.7,1c-0.1-2.2,0.4-4.4,1.5-6.2c-0.2-1-0.2-1.9-0.2-2.9l0.8-0.1
	c0.6,2,3.2,6.7,2.5,9c0.6,0.4,1.4,0.4,2,0 M364.9,212.3c0,0.7-0.5,1.2-1.2,1.2c-0.7,0-1.2-0.5-1.2-1.2c0-0.7,0.5-1.2,1.2-1.2l0,0
	C364.3,211.1,364.9,211.7,364.9,212.3"/>
<path class="st0" d="M108.4,8c-0.2-1.9-0.7-2.3-2.4-3.2c0-0.5,0.3-1,0.7-1.4c-0.7-0.2-1.5,0-2,0.5c-1.7-1.2-4-1.6-6-0.9
	c-1.4-0.8-3-1.1-4.7-1.1c-1.7,0-3.3,0.5-4.8,1.3c-2.2,0.5-6.4,0.2-8.9,1.4c-1-0.1-1.9,0.1-2.7,0.7c-3,2.8-0.9,11.9-0.9,11.9
	c2.2-3.1,0.7-9,1-10.4c0.1-0.6,0.6-1.1,1.2-1c0,0,0,0,0,0c-0.6,0.8-0.8,1.9-0.7,2.9c0.5,2.6,1.3,3.7,1,5.3c-0.3,0.7-0.6,1.4-1.1,2
	c0.1,1.6-0.2,7-0.2,7c0.4,0.7,1.5,0.2,1.5,0.2c0.1-1.9,0.2-5.5,0.9-6c0.8-0.6,1.4-1.5,1.7-2.4c-0.5,3.4,1.6,8.1,1.6,8.1
	c0.5,0.2,1.1,0.1,1.5-0.2c-1-2.1-1.3-4.5-0.7-6.8c0.2-0.5,0.4-0.9,0.8-1.3c0.5,0.6,1.2,1.1,1.9,1.2c2.2-0.5,4.6-0.3,6.7,0.6
	c-0.2,1.3-0.1,2.6,0.5,3.8c0.5,1.2,0.7,3,1,3.6c0,0,0.5,0.5,1.6,0.1c0,0-1.4-5.3,0.2-6.9c0.3,2.1,0.9,4.1,1.8,6
	c0.5,0.3,1.1,0.2,1.6-0.1c-0.8-1.6-1.1-3.4-0.7-5.2c0.5-0.2,1-0.5,1.3-0.8c1.5-1.4,1.3-3.9,3-4c0.8,0.6,1.7,1,2.7,1.1
	c0.2-0.4,0.3-0.9,0.3-1.3c1.4,0.3,2.1-1.1,2.3-1.9S108.5,9.1,108.4,8 M106.2,9.5c-0.6,0-1.1-0.5-1.1-1.1s0.5-1.1,1.1-1.1
	c0.6,0,1.1,0.5,1.1,1.1c0,0,0,0,0,0C107.3,9,106.8,9.5,106.2,9.5"/>
<path class="st0" d="M29.7,8.9C28.5,4.4,21.1-0.7,13,3.7C11.8,2.8,8.6,1,5.4,3.3c0,0,2.7,2,2.3,4.7c-7,7.6-6.5,13.4-5.3,16.5
	C-0.5,25.7,0,29.3,0,29.3c1.5-0.4,2.7-1.4,3.4-2.8l0.1,0.1c0.2,1.5,1.2,2.8,2.6,3.4c1.1-3-0.2-4.7-1.2-5.5c3.1-5.5,8-9.8,13.9-12.1
	c0,1.5-0.2,3-0.6,4.5c0,0,4.4-2,5-5.8c2.4-0.5,4.8-0.4,7.2,0.2C30.4,11.5,32.4,10.2,29.7,8.9 M25.4,7.6c-0.3,0.6-1.1,0.9-1.7,0.6
	c-0.6-0.3-0.9-1.1-0.6-1.7c0.3-0.6,1.1-0.9,1.7-0.6C25.4,6.2,25.7,6.9,25.4,7.6C25.4,7.6,25.4,7.6,25.4,7.6"/>
<path class="st0" d="M280.3,8.8c-3.7-0.9-8.5-0.8-16.1,1.4l0,0c-1-1-2.4-1.6-3.8-1.6c-3.1-0.1-5.9,2.4-5.7,5.5
	c0.2,2.4,2.6,12,1.6,14.5c0.6,0.5,1.4,0.6,2.1,0.3c-0.5-2.8-0.5-5.7,0-8.6c0,0,3.8,5.8,3.4,8.8c0,0,1.3,0.6,2-0.3
	c0,0-2.7-5.4-1.6-8.4c1.4,0.6,2.7,1.5,4.1,2.2c1.9-0.5,3.8-0.9,5.7-1.1c1.1,3.4,0.6,4.8-0.1,7.4c0.6,0.5,1.4,0.5,2.1,0.2
	c0,0-0.2-6.5,0.7-7.9c2.6,0.8,3.3,7.3,3.3,7.3c0.5,1.1,2.1,0.2,2.1,0.2c-1.2-2.6-2-5.4-2.4-8.2c2.2-1,2.4-2,2.5-4
	c1.3,0.2,2.6-0.2,3.5-1.2c0,0,1.4,0.6,2.2-1.1C286.1,14.2,284,9.6,280.3,8.8 M254,17.4c0,0-3.4,4.1-2.8,7
	C251.2,24.4,254.3,22.9,254,17.4 M280.9,11.1c0.6,0,1.1,0.5,1.1,1.1c0,0.6-0.5,1.1-1.1,1.1c-0.6,0-1.1-0.5-1.1-1.1
	C279.8,11.6,280.3,11.1,280.9,11.1C280.9,11.1,280.9,11.1,280.9,11.1 M285.6,3.8c-0.9,1.9-2.7,3.3-4.8,3.9c-1.6-1.4-2.5-3.5-2.3-5.6
	c-1.4,1.6-1.4,3.9,0,5.5c0.7,0,1.3,0.1,2,0.3l0,0c0.8,0.2,1.5,0.5,2.2,0.9C286.9,6.6,285.6,3.8,285.6,3.8"/>
<path class="st0" d="M242.7,7.7c0,0-9.8-2.8-18.2-2.4c-0.8-1.2-3.4-4.2-9-3c0,0,2.7,0.5,2.6,3.9c-2.5,0.6-4.9,1.4-7.2,2.6
	c-0.7-0.5-2.4-1.2-4.8,0.3c0.9,0,1.7,0.6,1.9,1.4c-0.9,0.6-1.7,1.3-2.5,2c-0.2-1.6-1.4-3.4-5.8-4.9c0,0,4.1,3.9,1.1,10.7
	c0,0,4.5-2.4,4.7-5.3c2.4,0.8,4.8,1.3,7.2,1.8c-0.2,0.9-0.7,1.7-1.5,2.3c3.4,0.7,4.9-1.1,5.4-1.8C224.6,16.1,237.4,15.8,242.7,7.7
	 M236.6,8.7c0,0.7-0.6,1.3-1.3,1.3s-1.3-0.6-1.3-1.3s0.6-1.3,1.3-1.3l0,0C236.1,7.5,236.6,8,236.6,8.7"/>
<path class="st0" d="M290.4,221.9c0,0-4.1-3.4-9.2,1.2c-5.3-2.1-14.3-1.3-21.6,6.2c3.3,1.6,6.9,2.7,10.6,3.2c-0.6,1-1.5,1.9-2.5,2.4
	c0,0,5.1,0.9,8.4-2.5c3.7-0.5,7.5-1.4,9.7-5.8C288.3,226.5,290.4,224.5,290.4,221.9C290.4,222,290.4,221.9,290.4,221.9 M258.8,229
	L258.8,229c0,0-1.1-4.3-6.5-3.4c0.3,1.6,1.5,3,3,3.5c-1.7,0.3-3.2,1.2-4.2,2.7C251.1,231.8,256.6,233.9,258.8,229 M287.2,223.2
	c0,0.7-0.5,1.3-1.2,1.3s-1.3-0.5-1.3-1.2s0.5-1.3,1.2-1.3c0,0,0,0,0,0C286.6,222,287.2,222.6,287.2,223.2
	C287.2,223.2,287.2,223.2,287.2,223.2"/>
<path class="st0" d="M106.1,220.1c0,0-2.5-4.3-6.2-0.9c0,0-5.6-2.8-7.2,4c0,0-1,0.7-4.4-2.6c-4.1-3.9-9.9-4.1-10.9,0.3
	s4.2,8.7,0.2,10.2c-2.9,1.1-4.8-4-2.7-6.4c0,0-4.9,2.9-2.1,7.5c2.6,4.2,8.4,3.4,10.5-1c1.4-2.8,0-6.4,0-6.4s5.1,8.2,12,4.1
	c1.9-1.1,2.7-3.5,1.8-5.5c0.6-1.3,2.1-1.9,3.4-1.4C103.1,222.7,105.1,222.7,106.1,220.1 M103.5,221.2c-0.5,0.3-1.2,0.1-1.5-0.4
	c0,0,0-0.1,0-0.1c-0.3-0.6-0.1-1.3,0.5-1.7c0.5-0.3,1.2-0.1,1.5,0.4c0,0,0,0.1,0,0.1C104.3,220.1,104.1,220.9,103.5,221.2 M93.8,226
	c-2.1,2.7-4.8,1.6-8.3-2.1c-1-1.1-2.2-2.1-3.5-2.9c0,0,1.8-1.2,4.3,1.1C91.3,226.7,93.8,226,93.8,226"/>
<path class="st0" d="M241.2,217.7c-1.9-2-4.6-0.4-6.9,2.5c-1.9,2.3-4,5.5-10.1,3.9c-2.9-0.7-9.2-5.1-14.4-0.2c0,0,4.6-2.4,9.9,2.3
	c2,1.6,14.6,11.2,19.9-4.6C239.6,221.7,243.8,220.5,241.2,217.7 M235,230.6c-0.6,0.5-1.3,0.8-2,0.9c0,0,0.3,2.8,2.7,3.4l0.1-0.9
	l1,0.1l-0.2-1l0.5-0.6C237.1,232.6,235.2,232.1,235,230.6 M221.6,229.2c0,0-1.4,3.9,1.6,4.9v-0.7l0.8,0.1v-0.8l0.8-0.2
	c-0.7-0.5-1.1-1.2-1.3-2.1C222.7,230,222.1,229.7,221.6,229.2 M239.8,219.6c-0.1,0.6-0.7,1-1.3,0.9c-0.6-0.1-1-0.7-0.9-1.3
	c0.1-0.6,0.6-1,1.2-0.9C239.4,218.4,239.8,218.9,239.8,219.6C239.8,219.6,239.8,219.6,239.8,219.6 M234,224.9
	c-0.1,0.4-0.4,0.6-0.8,0.5c-0.4-0.1-0.6-0.4-0.5-0.8c0.1-0.3,0.4-0.6,0.7-0.6C233.8,224.2,234,224.6,234,224.9
	C234,224.9,234,224.9,234,224.9 M229.8,227.2c-0.1,0.4-0.4,0.6-0.8,0.5c-0.4-0.1-0.6-0.4-0.5-0.8c0.1-0.3,0.4-0.6,0.7-0.6
	C229.5,226.5,229.8,226.9,229.8,227.2C229.8,227.2,229.8,227.2,229.8,227.2 M225.1,226.3c-0.1,0.4-0.4,0.6-0.8,0.5
	c-0.4-0.1-0.6-0.4-0.5-0.8c0.1-0.3,0.4-0.6,0.7-0.6C224.9,225.6,225.1,226,225.1,226.3C225.1,226.3,225.1,226.3,225.1,226.3
	 M242.4,229.8c0,0-1.7,0.1-3.5-3.4c-0.3,0.7-0.8,1.4-1.4,2c0.5,1.7,1.7,3.1,3.4,3.9l0.1-0.8l1-0.2l-0.3-0.9L242.4,229.8z"/>
<path class="st1" d="M67.9,84.6V54.9H84v4.8H73.6V67h9.9v4.7h-9.9v8H84v4.9L67.9,84.6z"/>
<path class="st1" d="M104.7,85.1c-9.4,0-11.5-5.1-11.5-10.8V54.9h5.7V74c0,3.7,1.2,6.4,6.2,6.4c4.4,0,6.2-1.8,6.2-6.9V54.9h5.6v18.2
	C117,81.2,112.6,85.1,104.7,85.1z"/>
<path class="st1" d="M141.3,84.6l-8-12.3h-0.5v12.3h-5.7V54.9c2.3-0.1,5.1-0.2,8.5-0.2c6.6,0,10.8,2.3,10.8,8.4
	c0,4.2-3.1,7.7-7.3,8.3c0.8,1.1,1.7,2.2,2.4,3.3l6.9,10H141.3z M135.1,59.4c-0.7,0-1.5,0-2.2,0.1v8.6c0.4,0,1.2,0.1,2.1,0.1
	c3.4,0,5.5-1.8,5.5-4.5S138.7,59.4,135.1,59.4z"/>
<path class="st1" d="M167.3,85.1c-9.1,0-13.5-5.8-13.5-14.9c0-9.9,6.6-15.8,14.5-15.8c9.1,0,13.5,5.8,13.5,14.9
	C181.9,79.2,175.3,85.1,167.3,85.1z M167.9,59.6c-4.5,0-7.9,3.6-7.9,10s2.6,10.4,7.9,10.4c4.5,0,7.9-3.5,7.9-9.9
	S173.2,59.6,167.9,59.6z"/>
<path class="st1" d="M198.3,74.4c-1.1,0-2.1-0.1-2.1-0.1v10.3h-5.7V54.9c0,0,4.1-0.2,8.3-0.2c7.3,0,11.3,3.3,11.3,9.1
	S206,74.4,198.3,74.4z M198.4,59.4c-1.1,0-2.2,0-2.2,0v10c0.8,0.1,1.6,0.2,2.4,0.2c3.6,0,5.5-2,5.5-5.2S202.4,59.4,198.4,59.4
	L198.4,59.4z"/>
<path class="st1" d="M217.7,84.6V54.9h16.1v4.8h-10.4V67h9.9v4.7h-9.9v8h10.4v4.9L217.7,84.6z"/>
<path class="st1" d="M261.8,84.6l-2-6.1h-11.3l-2.1,6.1h-5.8L251,54.9h6.7l10.5,29.7L261.8,84.6z M255.3,65.2
	c-0.5-1.5-0.9-2.8-1.2-4.1l0,0c-0.4,1.3-0.7,2.6-1.1,4.1l-3,8.8h8.5L255.3,65.2z"/>
<path class="st1" d="M292.4,84.6l-9.2-16.4c-1-1.9-1.9-3.8-2.6-5.8c0.2,2.6,0.3,9.8,0.3,14.1v8.1h-5.5V54.9h7.6l9,16
	c1.1,1.9,2,3.9,2.9,5.9c-0.2-3-0.3-10.3-0.3-14.4v-7.5h5.5v29.7L292.4,84.6z"/>
<path class="st1" d="M75.3,134.6l-8-12.3h-0.5v12.3h-5.7v-29.7c2.3-0.1,5.1-0.2,8.5-0.2c6.6,0,10.8,2.3,10.8,8.4
	c0,4.2-3.1,7.7-7.3,8.3c0.8,1.1,1.7,2.2,2.4,3.3l6.9,10L75.3,134.6z M69.1,109.4c-0.7,0-1.5,0-2.2,0.1v8.6c0.4,0,1.2,0.1,2.1,0.1
	c3.4,0,5.5-1.8,5.5-4.5S72.7,109.4,69.1,109.4z"/>
<path class="st1" d="M89.8,134.6v-29.7H106v4.8H95.6v7.3h9.9v4.7h-9.9v8H106v4.9L89.8,134.6z"/>
<path class="st1" d="M145.5,134.6h-7l-4.3-16.4c-0.5-2-0.9-4.1-1.1-6.1l0,0c-0.2,2-0.6,4-1.1,6l-4.3,16.5h-6.7l-7.6-29.7h6.1l4,16.4
	c0.5,2,0.9,4,1.1,6l0,0c0.3-2,0.7-4,1.1-5.8l4.5-16.6h6.1l4.7,16.5c0.5,1.9,0.9,3.8,1.2,5.8l0,0c0.3-2.1,0.7-3.9,1.1-5.7l4-16.6h5.7
	L145.5,134.6z"/>
<path class="st1" d="M160.8,134.6v-29.7h5.7v29.7H160.8z"/>
<path class="st1" d="M176.6,134.6v-29.7h5.7v24.7h9.7v5L176.6,134.6z"/>
<path class="st1" d="M207.6,134.8c-3.1,0-5.8-0.1-8.3-0.2v-29.6c2.3-0.1,5.9-0.2,9.6-0.2c9.2,0,15,4.1,15,14.5
	C224,129.4,217.3,134.8,207.6,134.8z M208.5,109.5c-1.3,0-2.6,0-3.5,0.1v20c1,0.2,2.1,0.2,3.1,0.2c5.6,0,9.6-3.2,9.6-10.2
	C217.8,113.3,215.3,109.5,208.5,109.5L208.5,109.5z"/>
<path class="st1" d="M232.7,134.6v-29.7h5.7v29.7H232.7z"/>
<path class="st1" d="M265.5,134.6l-9.2-16.4c-1-1.9-1.9-3.8-2.6-5.8c0.2,2.6,0.3,9.8,0.3,14.1v8.1h-5.5v-29.7h7.6l9,16
	c1.1,1.9,2,3.9,2.9,5.9c-0.2-3-0.3-10.3-0.3-14.4v-7.5h5.5v29.7H265.5z"/>
<path class="st1" d="M296.7,135c-9.8,0-15-5.5-15-14.4c0-9.6,5.8-16.2,16.5-16.2c2.9,0,5.7,0.4,8.4,1.3l-1.1,5.3
	c-2.4-1-5-1.4-7.6-1.4c-7,0-10,4.7-10,10.3c0,6.3,3.3,10,9.5,10c1.3,0,2.6-0.2,3.8-0.5V119h5.7v14.2
	C303.6,134.4,300.2,135,296.7,135z"/>
<path class="st1" d="M92.7,184.6l-9.2-16.4c-1-1.9-1.9-3.8-2.6-5.8c0.2,2.6,0.3,9.8,0.3,14.1v8.1h-5.5v-29.7h7.6l9,16
	c1.1,1.9,2,3.9,2.8,5.9c-0.2-3-0.3-10.3-0.3-14.4v-7.5h5.5v29.7L92.7,184.6z"/>
<path class="st1" d="M110.4,184.6v-29.7h16.2v4.8h-10.4v7.3h9.9v4.7h-9.9v8h10.4v4.9L110.4,184.6z"/>
<path class="st1" d="M147.2,159.8v24.8h-5.7v-24.8h-7.7v-4.9h21.1v4.9H147.2z"/>
<path class="st1" d="M193.5,184.6h-7l-4.3-16.4c-0.5-2-0.9-4.1-1.2-6.1l0,0c-0.2,2-0.6,4-1.1,6l-4.3,16.5h-6.6l-7.6-29.7h6.1l4,16.4
	c0.5,2,0.9,4,1.1,6l0,0c0.3-2,0.7-4,1.1-5.9l4.5-16.6h6.1l4.6,16.5c0.5,1.9,0.9,3.8,1.2,5.8l0,0c0.3-2.1,0.7-3.9,1.1-5.7l4-16.6h5.7
	L193.5,184.6z"/>
<path class="st1" d="M220.3,185.1c-9.1,0-13.5-5.8-13.5-14.9c0-9.9,6.6-15.8,14.5-15.8c9.1,0,13.5,5.8,13.5,14.9
	C234.8,179.1,228.2,185.1,220.3,185.1z M220.8,159.6c-4.5,0-7.9,3.6-7.9,9.9s2.6,10.4,7.9,10.4c4.5,0,7.9-3.5,7.9-9.9
	S226.1,159.5,220.8,159.6L220.8,159.6z"/>
<path class="st1" d="M257.7,184.6l-8-12.3h-0.5v12.3h-5.7v-29.7c2.3-0.1,5.1-0.2,8.5-0.2c6.6,0,10.8,2.3,10.8,8.4
	c0,4.2-3.1,7.7-7.3,8.3c0.8,1.1,1.7,2.2,2.4,3.3l6.9,10L257.7,184.6z M251.4,159.4c-0.8,0-1.5,0-2.2,0.1v8.6c0.4,0,1.2,0.1,2.1,0.1
	c3.4,0,5.5-1.8,5.5-4.5S255,159.4,251.4,159.4L251.4,159.4z"/>
<path class="st1" d="M287.4,184.6l-9.5-14.3v14.3h-5.7v-29.7h5.7v13.5l9.6-13.5h7l-10.9,14.4l11.4,15.3H287.4z"/>
</svg>
