<svg xmlns="http://www.w3.org/2000/svg" viewBox="0 0 414.8 89.79"><defs><style>.cls-1{fill:#fff;}.cls-2{fill:#50a64c;}.cls-3{fill:#b7d433;}.cls-4{fill:#efb81d;}</style></defs><title>logo-dark-small</title><g id="logos"><g id="logo-dark"><path class="cls-1" d="M118.26,21.53q-5.87,0-5.87,3.88a2.93,2.93,0,0,0,1.45,2.64,37.79,37.79,0,0,0,6.82,2.64q5.36,1.72,7.51,3.9c1.44,1.46,2.15,3.69,2.15,6.71q0,5.76-3.5,8.72a13.64,13.64,0,0,1-9.15,3,51.1,51.1,0,0,1-10.29-1.29l-1.94-.38.76-5.76a88.91,88.91,0,0,0,11,1c3.8,0,5.71-1.58,5.71-4.74a3.14,3.14,0,0,0-1.32-2.69,18.41,18.41,0,0,0-5.26-2.1q-6.24-1.79-8.8-4.23A9,9,0,0,1,105,26c0-3.67,1.11-6.39,3.34-8.19s5.28-2.69,9.16-2.69a61.58,61.58,0,0,1,10.12,1.07l1.94.38L129,22.39C123.92,21.82,120.34,21.53,118.26,21.53Z"/><path class="cls-1" d="M137.86,28.45c1.91-2.46,5.08-3.69,9.54-3.69S155,26,156.93,28.45s2.85,5.92,2.85,10.37Q159.78,53,147.4,53T135,38.82Q135,32.14,137.86,28.45Zm5.58,16.45c.73,1.3,2.05,1.94,4,1.94a4.13,4.13,0,0,0,3.95-1.94,12.71,12.71,0,0,0,1.11-6.08q0-4.16-1.11-6c-.73-1.26-2-1.89-3.95-1.89s-3.23.63-4,1.89-1.11,3.26-1.11,6A12.71,12.71,0,0,0,143.44,44.9Z"/><path class="cls-1" d="M166.14,52.34V14.64h7.22v37.7Z"/><path class="cls-1" d="M194.36,52.34V15.71h12.55l8.83,30.16h.54V15.71h7.43V52.34H211.49l-9.16-30.16h-.54V52.34Z"/><path class="cls-1" d="M252.42,33.81V45a4.23,4.23,0,0,0,.43,1.81,2,2,0,0,0,1.35.72L254,53a20.6,20.6,0,0,1-4.39-.37,9.85,9.85,0,0,1-3.31-1.51A17.91,17.91,0,0,1,238.36,53Q230,53,230,44.15q0-4.3,2.32-6.11t7.11-2.13l5.76-.43V33.81a2.86,2.86,0,0,0-.75-2.29A3.85,3.85,0,0,0,242,30.9l-10.12.43-.22-5a42,42,0,0,1,11-1.56c3.47,0,6,.72,7.49,2.16S252.42,30.65,252.42,33.81ZM240.3,40.92a2.93,2.93,0,0,0-3,3.23c0,2,.88,3,2.64,3a17.39,17.39,0,0,0,4.47-.64l.81-.22V40.49Z"/><path class="cls-1" d="M279.4,32.14a86.86,86.86,0,0,0-9.34-.86,7.8,7.8,0,0,0-3.45.48,1.69,1.69,0,0,0-.78,1.54,1.46,1.46,0,0,0,1.05,1.45,40.33,40.33,0,0,0,5.38,1.19q4.33.78,6.17,2.56t1.83,5.76q0,8.73-10.82,8.72a46.66,46.66,0,0,1-8.62-1l-1.72-.32.21-6a86.91,86.91,0,0,0,9.29.86,8.41,8.41,0,0,0,3.56-.51,1.66,1.66,0,0,0,.94-1.54,1.57,1.57,0,0,0-1-1.5,25.31,25.31,0,0,0-5.17-1.19,13.22,13.22,0,0,1-6.22-2.37c-1.36-1.11-2-3.1-2-5.95a7.56,7.56,0,0,1,2.9-6.46,12.12,12.12,0,0,1,7.49-2.18,50.39,50.39,0,0,1,8.67,1l1.78.32Z"/><path class="cls-1" d="M296.31,24.76a38.89,38.89,0,0,1,7.17.86l1.45.33-.22,5.71q-4.24-.43-6.3-.43c-2.47,0-4.12.53-4.93,1.58s-1.21,3.07-1.21,6,.41,5,1.21,6.06,2.47,1.64,5,1.64l6.24-.43.22,5.76A49,49,0,0,1,296.15,53q-6,0-8.59-3.36T285,38.82q0-7.44,2.69-10.75C289.44,25.87,292.33,24.76,296.31,24.76Z"/><path class="cls-1" d="M318,45.52a5.37,5.37,0,0,0,3.64,1.11q5,0,8.94-.32l1.51-.17.1,5.34A48,48,0,0,1,321,53q-6.09,0-8.83-3.23t-2.75-10.5q0-14.49,11.91-14.49,11.73,0,11.74,12.17l-.54,5H316.72A4.69,4.69,0,0,0,318,45.52ZM326,36.45c0-2.15-.34-3.65-1-4.5s-1.87-1.26-3.58-1.26A4.37,4.37,0,0,0,317.77,32a7.49,7.49,0,0,0-1.1,4.44Z"/><path class="cls-1" d="M346.24,52.34H339V25.41h7.16v1.51a13.5,13.5,0,0,1,6.74-2.16c3.59,0,6.06,1.06,7.43,3.18s2,5.39,2,9.8v14.6h-7.21V38a12.06,12.06,0,0,0-.81-5.09,3.24,3.24,0,0,0-3.23-1.64,12.33,12.33,0,0,0-4.26.75l-.64.21Z"/><path class="cls-1" d="M384.48,31.55h-6.63v11c0,1.08,0,1.84.08,2.29a1.88,1.88,0,0,0,.6,1.16,2.25,2.25,0,0,0,1.58.48l4.1-.11.32,5.77A27.91,27.91,0,0,1,379,53c-3.23,0-5.44-.72-6.63-2.18s-1.77-4.14-1.77-8V31.55h-3.18V25.41h3.18V17.92h7.21v7.49h6.63Z"/><path class="cls-1" d="M397.16,45.52a5.35,5.35,0,0,0,3.64,1.11q5,0,8.94-.32l1.5-.17.11,5.34a48,48,0,0,1-11.2,1.5q-6.09,0-8.83-3.23t-2.75-10.5q0-14.49,11.9-14.49,11.75,0,11.74,12.17l-.53,5H395.84A4.69,4.69,0,0,0,397.16,45.52Zm7.94-9.07q0-3.23-1-4.5a5.66,5.66,0,0,0-7.19.06,7.41,7.41,0,0,0-1.1,4.44Z"/><path class="cls-1" d="M105.1,74.85v-10h6v1h-4.88v3.91h4.13v1h-4.13v4.14Z"/><path class="cls-1" d="M113.11,71.21a4.6,4.6,0,0,1,.7-2.86,2.93,2.93,0,0,1,2.4-.89,2.88,2.88,0,0,1,2.39.89,4.6,4.6,0,0,1,.7,2.86,4.89,4.89,0,0,1-.66,2.88,3.74,3.74,0,0,1-4.87,0A4.89,4.89,0,0,1,113.11,71.21Zm1.11,0a4.66,4.66,0,0,0,.38,2.22,1.74,1.74,0,0,0,1.61.64c.82,0,1.35-.21,1.6-.63a4.66,4.66,0,0,0,.38-2.22,4.07,4.07,0,0,0-.42-2.19,2.3,2.3,0,0,0-3.12,0A3.92,3.92,0,0,0,114.22,71.19Z"/><path class="cls-1" d="M124.5,68.43c-1,0-1.58.37-1.58,1.1a.76.76,0,0,0,.36.72,6.18,6.18,0,0,0,1.65.44,4.17,4.17,0,0,1,1.83.63,1.77,1.77,0,0,1,.53,1.51,1.88,1.88,0,0,1-.71,1.64,3.53,3.53,0,0,1-2.09.52,13.72,13.72,0,0,1-2.12-.2l-.43-.07.06-.94a18.9,18.9,0,0,0,2.49.24,2.49,2.49,0,0,0,1.28-.27,1,1,0,0,0,.44-.89.93.93,0,0,0-.38-.86,5.67,5.67,0,0,0-1.65-.43,4.32,4.32,0,0,1-1.81-.59,1.67,1.67,0,0,1-.53-1.45,1.75,1.75,0,0,1,.74-1.56,3.23,3.23,0,0,1,1.86-.51,14.77,14.77,0,0,1,2.22.21l.4.07,0,.93A18.11,18.11,0,0,0,124.5,68.43Z"/><path class="cls-1" d="M133.87,68.55h-2.31V72a4.41,4.41,0,0,0,.19,1.64c.12.26.4.39.86.39L133.9,74l.07.9a10.9,10.9,0,0,1-1.48.16,1.91,1.91,0,0,1-1.56-.55,3.59,3.59,0,0,1-.44-2.1V68.55h-1v-.94h1V65.39h1.07v2.22h2.31Z"/><path class="cls-1" d="M141.28,74l.42,0,0,.85a21.47,21.47,0,0,1-2.83.23,2.54,2.54,0,0,1-2.21-.9,4.91,4.91,0,0,1-.65-2.82q0-3.81,3-3.81a2.78,2.78,0,0,1,2.19.82,3.83,3.83,0,0,1,.72,2.57l-.05.83h-4.78a3,3,0,0,0,.43,1.78,1.81,1.81,0,0,0,1.52.58C139.8,74,140.54,74,141.28,74Zm-.39-3.14a3.08,3.08,0,0,0-.43-1.88,1.64,1.64,0,0,0-1.39-.55,1.81,1.81,0,0,0-1.45.57,3,3,0,0,0-.5,1.86Z"/><path class="cls-1" d="M144.83,74.85V67.61h1.07v1a7,7,0,0,1,2.65-1.14v1.1a8.45,8.45,0,0,0-1.27.36,9.2,9.2,0,0,0-1,.44l-.36.18v5.32Z"/><path class="cls-1" d="M151,66V64.71h1.09V66Zm0,8.88V67.61h1.09v7.24Z"/><path class="cls-1" d="M156.41,74.85h-1.09V67.61h1.07v.5a4.7,4.7,0,0,1,2.25-.65,2.11,2.11,0,0,1,1.94.79,5.42,5.42,0,0,1,.5,2.78v3.82H160v-3.8a5,5,0,0,0-.29-2.06,1.31,1.31,0,0,0-1.27-.56,3.86,3.86,0,0,0-1,.14,4.72,4.72,0,0,0-.79.27l-.27.13Z"/><path class="cls-1" d="M167.05,78.25a4.59,4.59,0,0,1-2.43-.47,2,2,0,0,1-.68-1.72,1.6,1.6,0,0,1,.26-1,4,4,0,0,1,.88-.83,1.13,1.13,0,0,1-.4-1,2.49,2.49,0,0,1,.36-.91l.13-.23A2.15,2.15,0,0,1,164,69.94c0-1.65.91-2.48,2.71-2.48a5.31,5.31,0,0,1,1.29.15l.22,0,2.14-.06v.93l-1.38,0a2,2,0,0,1,.48,1.45,2.3,2.3,0,0,1-.67,1.9,3.38,3.38,0,0,1-2.12.55,3.84,3.84,0,0,1-.71-.06,2.8,2.8,0,0,0-.26.82c0,.3.09.49.27.56a7.06,7.06,0,0,0,1.67.11,3.56,3.56,0,0,1,2,.43,2,2,0,0,1,.6,1.7C170.26,77.48,169.19,78.25,167.05,78.25ZM165,76a1.19,1.19,0,0,0,.43,1.06,2.91,2.91,0,0,0,1.57.3,3.21,3.21,0,0,0,1.65-.32,1.15,1.15,0,0,0,.5-1.07,1.06,1.06,0,0,0-.36-1,3.18,3.18,0,0,0-1.42-.21l-1.56-.08a2.79,2.79,0,0,0-.65.61A1.23,1.23,0,0,0,165,76Zm.1-6a1.67,1.67,0,0,0,.38,1.22,1.84,1.84,0,0,0,1.27.36,1.79,1.79,0,0,0,1.26-.36,1.68,1.68,0,0,0,.38-1.23,1.65,1.65,0,0,0-.38-1.22,2.37,2.37,0,0,0-2.53,0A1.65,1.65,0,0,0,165.11,69.94Z"/><path class="cls-1" d="M183.44,74.69a13.8,13.8,0,0,1-2.68.3,4.92,4.92,0,0,1-1.92-.32,2.43,2.43,0,0,1-1.13-1,4.76,4.76,0,0,1-.55-1.58,13.64,13.64,0,0,1-.15-2.22,13.86,13.86,0,0,1,.15-2.23,4.8,4.8,0,0,1,.55-1.6,2.36,2.36,0,0,1,1.12-1,4.8,4.8,0,0,1,1.89-.32,14.07,14.07,0,0,1,2.72.32l-.05.94a15.31,15.31,0,0,0-2.6-.26,2.19,2.19,0,0,0-2.11.95,7.36,7.36,0,0,0-.51,3.24,15.07,15.07,0,0,0,.09,1.84,4.34,4.34,0,0,0,.37,1.25,1.56,1.56,0,0,0,.81.79A3.84,3.84,0,0,0,181,74a12.73,12.73,0,0,0,2.41-.26Z"/><path class="cls-1" d="M185.77,71.21a4.6,4.6,0,0,1,.71-2.86,3.65,3.65,0,0,1,4.78,0,4.6,4.6,0,0,1,.71,2.86,4.88,4.88,0,0,1-.67,2.88,3.74,3.74,0,0,1-4.87,0A4.89,4.89,0,0,1,185.77,71.21Zm1.11,0a4.52,4.52,0,0,0,.39,2.22,1.71,1.71,0,0,0,1.6.64c.82,0,1.35-.21,1.6-.63a4.54,4.54,0,0,0,.38-2.22,4.07,4.07,0,0,0-.42-2.19,1.78,1.78,0,0,0-1.56-.61,1.81,1.81,0,0,0-1.56.61A4,4,0,0,0,186.88,71.19Z"/><path class="cls-1" d="M196,74.85h-1.09V67.61H196v.5a4.17,4.17,0,0,1,2.12-.65,2.19,2.19,0,0,1,1.88.74,5.46,5.46,0,0,1,1.24-.51,4.76,4.76,0,0,1,1.33-.23,2.14,2.14,0,0,1,1.95.78A5.52,5.52,0,0,1,205,71v3.82H203.9v-3.8a5,5,0,0,0-.29-2.06,1.28,1.28,0,0,0-1.24-.56,3.86,3.86,0,0,0-1,.14,4.27,4.27,0,0,0-.78.27l-.28.13a7,7,0,0,1,.19,2.11v3.77h-1.08V71.11a5.25,5.25,0,0,0-.29-2.12,1.24,1.24,0,0,0-1.23-.56,3.52,3.52,0,0,0-.95.14,4.11,4.11,0,0,0-.75.27L196,69Z"/><path class="cls-1" d="M209.24,74.85h-1.09V67.61h1.07v.5a4.17,4.17,0,0,1,2.12-.65,2.19,2.19,0,0,1,1.88.74,5.46,5.46,0,0,1,1.24-.51,4.77,4.77,0,0,1,1.34-.23,2.13,2.13,0,0,1,1.94.78,5.42,5.42,0,0,1,.5,2.79v3.82h-1.08v-3.8a5,5,0,0,0-.29-2.06,1.27,1.27,0,0,0-1.23-.56,3.87,3.87,0,0,0-1,.14,4.27,4.27,0,0,0-.78.27l-.27.13a7.54,7.54,0,0,1,.18,2.11v3.77H212.7V71.11a5.49,5.49,0,0,0-.28-2.12,1.27,1.27,0,0,0-1.24-.56,3.52,3.52,0,0,0-1,.14,4.41,4.41,0,0,0-.75.27l-.24.13Z"/><path class="cls-1" d="M225.93,67.61H227v7.24h-1.09v-.51a4.08,4.08,0,0,1-2.14.65,2.14,2.14,0,0,1-2-.76,5.72,5.72,0,0,1-.49-2.84V67.61h1.09v3.76a5.48,5.48,0,0,0,.27,2.12c.19.35.6.53,1.25.53a3.3,3.3,0,0,0,1-.14,5.2,5.2,0,0,0,.75-.26l.26-.13Z"/><path class="cls-1" d="M231.35,74.85h-1.09V67.61h1.07v.5a4.67,4.67,0,0,1,2.24-.65,2.12,2.12,0,0,1,2,.79A5.53,5.53,0,0,1,236,71v3.82H235v-3.8a4.83,4.83,0,0,0-.3-2.06,1.3,1.3,0,0,0-1.26-.56,3.86,3.86,0,0,0-1,.14,4.42,4.42,0,0,0-.79.27l-.27.13Z"/><path class="cls-1" d="M239.19,66V64.71h1.09V66Zm0,8.88V67.61h1.09v7.24Z"/><path class="cls-1" d="M247.27,68.55H245V72a4.72,4.72,0,0,0,.18,1.64c.12.26.41.39.86.39L247.3,74l.07.9a10.9,10.9,0,0,1-1.48.16,1.91,1.91,0,0,1-1.56-.55,3.61,3.61,0,0,1-.43-2.1V68.55h-1v-.94h1V65.39H245v2.22h2.3Z"/><path class="cls-1" d="M249.76,66V64.71h1.09V66Zm0,8.88V67.61h1.09v7.24Z"/><path class="cls-1" d="M259,74l.42,0,0,.85a21.47,21.47,0,0,1-2.82.23,2.56,2.56,0,0,1-2.22-.9,4.91,4.91,0,0,1-.65-2.82q0-3.81,3-3.81a2.78,2.78,0,0,1,2.18.82,3.83,3.83,0,0,1,.73,2.57l-.06.83h-4.78a3,3,0,0,0,.44,1.78,1.77,1.77,0,0,0,1.51.58Q257.9,74,259,74Zm-.39-3.14a3.08,3.08,0,0,0-.43-1.88,1.64,1.64,0,0,0-1.39-.55,1.81,1.81,0,0,0-1.45.57,3,3,0,0,0-.49,1.86Z"/><path class="cls-1" d="M264.83,68.43c-1.05,0-1.58.37-1.58,1.1a.76.76,0,0,0,.36.72,6.29,6.29,0,0,0,1.66.44,4.17,4.17,0,0,1,1.82.63,1.77,1.77,0,0,1,.54,1.51,1.89,1.89,0,0,1-.72,1.64,3.53,3.53,0,0,1-2.09.52,13.72,13.72,0,0,1-2.12-.2l-.43-.07.06-.94a18.9,18.9,0,0,0,2.49.24,2.49,2.49,0,0,0,1.28-.27,1,1,0,0,0,.44-.89.93.93,0,0,0-.38-.86,5.67,5.67,0,0,0-1.65-.43A4.32,4.32,0,0,1,262.7,71a1.7,1.7,0,0,1-.53-1.45,1.77,1.77,0,0,1,.74-1.56,3.23,3.23,0,0,1,1.86-.51,14.77,14.77,0,0,1,2.22.21l.4.07,0,.93A18.11,18.11,0,0,0,264.83,68.43Z"/><path class="cls-1" d="M274.47,71.21a4.6,4.6,0,0,1,.71-2.86,3.67,3.67,0,0,1,4.79,0,4.6,4.6,0,0,1,.7,2.86,4.81,4.81,0,0,1-.67,2.88,3.73,3.73,0,0,1-4.86,0A4.81,4.81,0,0,1,274.47,71.21Zm1.12,0a4.66,4.66,0,0,0,.38,2.22,2.35,2.35,0,0,0,3.21,0,4.68,4.68,0,0,0,.37-2.22,4.07,4.07,0,0,0-.42-2.19,1.76,1.76,0,0,0-1.55-.61A1.82,1.82,0,0,0,276,69,4,4,0,0,0,275.59,71.19Z"/><path class="cls-1" d="M285,68.55v6.3H283.9v-6.3H283v-.94h.91V67a3.63,3.63,0,0,1,.43-2.1,1.83,1.83,0,0,1,1.52-.55l1.46.1v.9l-1.34,0a.82.82,0,0,0-.75.34A2.78,2.78,0,0,0,285,67v.64h2.1v.94Z"/><path class="cls-1" d="M293,65.83v-1h7.24v1h-3v9h-1.1v-9Z"/><path class="cls-1" d="M301.42,74.85V67.61h1.07v1a7,7,0,0,1,2.65-1.14v1.1a8.45,8.45,0,0,0-1.27.36,9.2,9.2,0,0,0-1,.44l-.36.18v5.32Z"/><path class="cls-1" d="M312.36,74l.42,0,0,.85A21.47,21.47,0,0,1,310,75a2.56,2.56,0,0,1-2.22-.9,4.91,4.91,0,0,1-.65-2.82q0-3.81,3-3.81a2.78,2.78,0,0,1,2.18.82,3.83,3.83,0,0,1,.73,2.57l-.06.83h-4.78a3,3,0,0,0,.44,1.78,1.77,1.77,0,0,0,1.51.58Q311.25,74,312.36,74ZM312,70.81a3.08,3.08,0,0,0-.43-1.88,1.63,1.63,0,0,0-1.39-.55,1.78,1.78,0,0,0-1.44.57,2.91,2.91,0,0,0-.5,1.86Z"/><path class="cls-1" d="M320.83,74l.42,0,0,.85a21.47,21.47,0,0,1-2.82.23,2.56,2.56,0,0,1-2.22-.9,4.91,4.91,0,0,1-.65-2.82q0-3.81,3-3.81a2.78,2.78,0,0,1,2.18.82,3.83,3.83,0,0,1,.73,2.57l-.06.83h-4.78a3,3,0,0,0,.43,1.78,1.81,1.81,0,0,0,1.52.58Q319.72,74,320.83,74Zm-.39-3.14a3.08,3.08,0,0,0-.43-1.88,1.63,1.63,0,0,0-1.39-.55,1.78,1.78,0,0,0-1.44.57,2.91,2.91,0,0,0-.5,1.86Z"/><path class="cls-1" d="M326.65,68.43c-1,0-1.58.37-1.58,1.1a.76.76,0,0,0,.36.72,6.29,6.29,0,0,0,1.66.44,4.17,4.17,0,0,1,1.82.63,1.77,1.77,0,0,1,.53,1.51,1.88,1.88,0,0,1-.71,1.64,3.53,3.53,0,0,1-2.09.52,13.72,13.72,0,0,1-2.12-.2l-.43-.07.06-.94a18.9,18.9,0,0,0,2.49.24,2.49,2.49,0,0,0,1.28-.27,1,1,0,0,0,.44-.89A.93.93,0,0,0,328,72a5.67,5.67,0,0,0-1.65-.43,4.32,4.32,0,0,1-1.81-.59,1.7,1.7,0,0,1-.53-1.45,1.75,1.75,0,0,1,.74-1.56,3.23,3.23,0,0,1,1.86-.51,14.77,14.77,0,0,1,2.22.21l.4.07,0,.93A18.11,18.11,0,0,0,326.65,68.43Z"/><path class="cls-1" d="M341.72,69.79V73.5c0,.36.31.57.84.64l0,.85a2.31,2.31,0,0,1-1.72-.58,6.33,6.33,0,0,1-2.61.58,2,2,0,0,1-1.52-.56,2.3,2.3,0,0,1-.52-1.62,2.06,2.06,0,0,1,.53-1.56,2.9,2.9,0,0,1,1.68-.62l2.28-.21v-.63a1.45,1.45,0,0,0-.32-1.05,1.21,1.21,0,0,0-.87-.32,22.32,22.32,0,0,0-2.4.14l-.45,0-.05-.83a14.84,14.84,0,0,1,2.83-.32,2,2,0,0,1,2.34,2.33Zm-4.46,3c0,.89.37,1.33,1.1,1.33a5.86,5.86,0,0,0,1.94-.33l.34-.12V71.24l-2.15.2a1.41,1.41,0,0,0-.94.38A1.35,1.35,0,0,0,337.26,72.75Z"/><path class="cls-1" d="M346.11,74.85H345V67.61h1.07v.5a4.7,4.7,0,0,1,2.25-.65,2.14,2.14,0,0,1,2,.79,5.55,5.55,0,0,1,.49,2.78v3.82h-1.07v-3.8a5,5,0,0,0-.29-2.06,1.31,1.31,0,0,0-1.27-.56,3.92,3.92,0,0,0-1,.14,4.72,4.72,0,0,0-.79.27l-.27.13Z"/><path class="cls-1" d="M359.52,64.45v10.4h-1.08v-.49a4.42,4.42,0,0,1-2.2.63,3.42,3.42,0,0,1-1-.14,2.11,2.11,0,0,1-.81-.52,4.1,4.1,0,0,1-.78-2.89,5.1,5.1,0,0,1,.7-3,2.73,2.73,0,0,1,2.32-.94,9.47,9.47,0,0,1,1.78.19v-3.2Zm-3.77,9.47a1.82,1.82,0,0,0,.67.1,3.28,3.28,0,0,0,.93-.14,6.3,6.3,0,0,0,.8-.26l.29-.13V68.58a9,9,0,0,0-1.72-.18,1.65,1.65,0,0,0-1.53.71,4.21,4.21,0,0,0-.44,2.18,3.53,3.53,0,0,0,.51,2.25A1.21,1.21,0,0,0,355.75,73.92Z"/><path class="cls-1" d="M371,71.47h-2.55v3.38H367.3v-10H371a3.24,3.24,0,0,1,2.41.79,3.35,3.35,0,0,1,.79,2.44C374.17,70.34,373.1,71.47,371,71.47Zm-2.55-1H371q2.07,0,2.07-2.43a2.45,2.45,0,0,0-.49-1.7,2,2,0,0,0-1.58-.55h-2.53Z"/><path class="cls-1" d="M381.72,74l.42,0,0,.85a21.47,21.47,0,0,1-2.82.23,2.57,2.57,0,0,1-2.22-.9,4.91,4.91,0,0,1-.65-2.82q0-3.81,3-3.81a2.78,2.78,0,0,1,2.18.82,3.77,3.77,0,0,1,.73,2.57l-.06.83h-4.78a3,3,0,0,0,.44,1.78,1.79,1.79,0,0,0,1.51.58Q380.61,74,381.72,74Zm-.39-3.14a3.16,3.16,0,0,0-.42-1.88,1.65,1.65,0,0,0-1.39-.55,1.78,1.78,0,0,0-1.45.57,2.91,2.91,0,0,0-.5,1.86Z"/><path class="cls-1" d="M385,71.21a4.6,4.6,0,0,1,.71-2.86,3.67,3.67,0,0,1,4.79,0,4.67,4.67,0,0,1,.7,2.86,4.81,4.81,0,0,1-.67,2.88,3.73,3.73,0,0,1-4.86,0A4.81,4.81,0,0,1,385,71.21Zm1.12,0a4.54,4.54,0,0,0,.38,2.22,2.35,2.35,0,0,0,3.21,0A4.68,4.68,0,0,0,390,71.2a4.07,4.07,0,0,0-.42-2.19,1.78,1.78,0,0,0-1.55-.61,1.82,1.82,0,0,0-1.57.61A4,4,0,0,0,386.07,71.19Z"/><path class="cls-1" d="M394.07,78.06V67.61h1.07v.52a4.25,4.25,0,0,1,2.18-.67,2.28,2.28,0,0,1,2,.88,5.07,5.07,0,0,1,.63,2.89,4.58,4.58,0,0,1-.73,2.89,3,3,0,0,1-2.43.87,7.41,7.41,0,0,1-1.62-.16v3.23Zm3.09-9.63a3.33,3.33,0,0,0-.94.15,5.22,5.22,0,0,0-.79.29l-.27.14v4.88a10.43,10.43,0,0,0,1.56.16,1.91,1.91,0,0,0,1.65-.66,3.92,3.92,0,0,0,.47-2.18,4.06,4.06,0,0,0-.43-2.14A1.43,1.43,0,0,0,397.16,68.43Z"/><path class="cls-1" d="M403,74.85V64.45H404v10.4Z"/><path class="cls-1" d="M412.29,74l.42,0,0,.85a21.34,21.34,0,0,1-2.82.23,2.54,2.54,0,0,1-2.21-.9,4.83,4.83,0,0,1-.65-2.82c0-2.54,1-3.81,3-3.81a2.8,2.8,0,0,1,2.19.82,3.83,3.83,0,0,1,.72,2.57l-.06.83h-4.77a3,3,0,0,0,.43,1.78,1.79,1.79,0,0,0,1.51.58C410.81,74,411.54,74,412.29,74Zm-.39-3.14a3.15,3.15,0,0,0-.43-1.88,1.65,1.65,0,0,0-1.39-.55,1.8,1.8,0,0,0-1.45.57,3,3,0,0,0-.5,1.86Z"/><g id="avatar"><path class="cls-2" d="M46.5,16.86c-5-6.85-5.36-8.3-5.38-8.54,0,.24-.4,1.69-5.39,8.54-5.62,7.71,3.86,12.38,3.86,12.38l1.53-12.38h0l1.52,12.38S52.12,24.57,46.5,16.86Z"/><path class="cls-2" d="M10.52,41.08c-6.85,5-8.3,5.37-8.54,5.39.24,0,1.69.39,8.54,5.38C18.23,57.47,22.9,48,22.9,48L10.52,46.47h0L22.9,44.94S18.23,35.46,10.52,41.08Z"/><path class="cls-2" d="M23.81,22c-8.38-1.32-9.67-2.08-9.85-2.23.15.18.92,1.47,2.23,9.84,1.47,9.43,11.48,6,11.48,6L20,25.79h0l9.83,7.68S33.23,23.46,23.81,22Z"/><path class="cls-2" d="M71.71,41.08c6.85,5,8.3,5.37,8.54,5.39-.24,0-1.69.39-8.54,5.38C64,57.47,59.33,48,59.33,48l12.38-1.52h0L59.33,44.94S64,35.46,71.71,41.08Z"/><path class="cls-2" d="M58.43,22c8.37-1.32,9.66-2.08,9.84-2.23-.15.18-.91,1.47-2.23,9.84-1.47,9.43-11.48,6-11.48,6l7.68-9.83h0l-9.83,7.68S49,23.46,58.43,22Z"/><path class="cls-3" d="M47.33,30.21a10.74,10.74,0,0,0,3.11-.7s-.29.46-.7,3.11c-.47,3-3.64,1.91-3.64,1.91l2.43-3.12h0l-3.11,2.43S44.34,30.68,47.33,30.21Z"/><path class="cls-3" d="M54.42,50a10.25,10.25,0,0,0,.7,3.11c0-.05-.46-.29-3.11-.7-3-.47-1.91-3.64-1.91-3.64l3.11,2.43h0l-2.43-3.11S54,47,54.42,50Z"/><path class="cls-3" d="M56.44,39.86c2.16,1.58,2.62,1.7,2.7,1.71-.08,0-.54.12-2.7,1.7-2.44,1.78-3.92-1.22-3.92-1.22l3.92-.48h0l-3.92-.48S54,38.08,56.44,39.86Z"/><path class="cls-3" d="M36.24,30.65c-2.27-1.43-2.55-1.81-2.58-1.88s.08.54-.59,3.14c-.75,2.92,2.58,3.19,2.58,3.19l-1-3.82h0l1.9,3.46S38.79,32.26,36.24,30.65Z"/><path class="cls-3" d="M26,47.73c-.93,2.51-1.25,2.86-1.31,2.91s.51-.19,3.19-.08c3,.13,2.59-3.18,2.59-3.18L27,49.14h0l3-2.57S27.08,44.89,26,47.73Z"/><path class="cls-3" d="M26.78,38.1c-2.63.51-3.09.43-3.17.4.07,0,.44.34,1.73,2.69,1.46,2.64,4.07.55,4.07.55l-3.35-2.1h0l3.75,1.22S29.75,37.52,26.78,38.1Z"/><path class="cls-3" d="M52.65,12.3c4.15-2.39,4.67-3.05,4.74-3.17,0,.13-.19,1,.81,5.63,1.13,5.27-4.83,5.51-4.83,5.51l2.06-6.74h0l-3.63,6S48,15,52.65,12.3Z"/><path class="cls-2" d="M64.27,13.62c3-.73,3.43-1,3.49-1.1s-.28.56-.51,3.62c-.25,3.46-4,2.53-4,2.53l2.48-3.79h0L62.44,18S60.91,14.44,64.27,13.62Z"/><path class="cls-2" d="M32.35,7.28A9,9,0,0,0,33.64,4.8c0,.06.15.45,1.69,2.23,1.73,2-.79,3.51-.79,3.51l-.7-3.38h0l-.14,3.45S31,9.54,32.35,7.28Z"/><path class="cls-2" d="M79.75,38.59C81.94,40.74,82.44,41,82.53,41c-.09,0-.63.05-3.35,1.49-3.06,1.61-4.24-2-4.24-2l4.53.09h0L75.1,39.34S77.27,36.18,79.75,38.59Z"/><path class="cls-2" d="M2.78,41.28C.58,39.13.08,38.93,0,38.91c.09,0,.63-.06,3.34-1.49,3.06-1.62,4.25,2,4.25,2l-4.53-.1h0l4.37,1.19S5.26,43.7,2.78,41.28Z"/><path class="cls-2" d="M7.6,25c-.8-3-1.12-3.4-1.19-3.46.08,0,.57.27,3.64.42,3.46.16,2.62,3.9,2.62,3.9L8.83,23.49h0L12,26.73S8.5,28.34,7.6,25Z"/><path class="cls-3" d="M73.23,30.62c4.65,1.11,5.48,1,5.61.95-.12.07-.79.57-3.28,4.65-2.8,4.6-7.29.67-7.29.67l6.12-3.47h0l-6.78,1.89S68,29.37,73.23,30.62Z"/><path class="cls-3" d="M30.64,11.49C26.5,9.1,26,8.44,25.91,8.32c0,.13.18,1-.82,5.64-1.13,5.26,4.83,5.5,4.83,5.5l-2.05-6.73h0l3.62,6S35.31,14.18,30.64,11.49Z"/><path class="cls-2" d="M9.41,29.41c-4.65,1.11-5.49,1-5.62.95.12.07.8.57,3.29,4.65,2.8,4.6,7.29.67,7.29.67L8.24,32.21h0L15,34.1S14.65,28.16,9.41,29.41Z"/><path class="cls-2" d="M74.15,19.53c4.78-.24,5.54-.59,5.65-.67-.09.1-.6.77-1.83,5.39-1.39,5.2-6.81,2.7-6.81,2.7l4.9-5.06h0l-6,3.73S68.77,19.81,74.15,19.53Z"/><path class="cls-2" d="M45.92,4.27C49.32.9,49.66.13,49.69,0c0,.13.07,1,2.23,5.24,2.43,4.8-3.27,6.55-3.27,6.55l.27-7h0l-2,6.76S42.1,8.07,45.92,4.27Z"/><path class="cls-2" d="M14.32,13.13c0-4.79-.29-5.57-.36-5.69.09.1.74.64,5.28,2.13,5.11,1.68,2.32,7,2.32,7l-4.78-5.17h0l3.39,6.17S14.3,18.51,14.32,13.13Z"/><path class="cls-4" d="M45.27,69.85a14.24,14.24,0,0,0,5.39,4.61,21.57,21.57,0,0,0,7,2,37.65,37.65,0,0,0,5.21.24,20.32,20.32,0,0,0-20.3-19.54c-.28,0-.56,0-.84,0a32.45,32.45,0,0,0,.78,6.14A18.21,18.21,0,0,0,45.27,69.85Z"/><path class="cls-4" d="M62.83,76.8a35.52,35.52,0,0,1-5.26,0,20.74,20.74,0,0,1-7.2-1.76,14.53,14.53,0,0,1-5.8-4.71,19.26,19.26,0,0,1-3-6.84,33.62,33.62,0,0,1-.86-6.3A20.34,20.34,0,0,0,23.35,70.72,23,23,0,0,1,34.6,71a23,23,0,0,0-5.9-.37,26.86,26.86,0,0,0-5.64.9.49.49,0,0,1,0,.11c-.18.63,1.4-.19,1.4-.19l3.84,0,11.91,2.19,15.25,3.8h7.43v-.33C62.85,77,62.83,76.91,62.83,76.8Z"/><circle class="cls-1" cx="33.38" cy="55.94" r="1.74"/><path class="cls-1" d="M39.33,55.1a.24.24,0,0,0-.45-.12,6.81,6.81,0,0,1-3.48,3.11,3.74,3.74,0,0,1-2.9,0A6.83,6.83,0,0,1,29,55a.24.24,0,0,0-.45.12A7,7,0,0,0,32,60.7s-1.15,11.94-.3,12.06c.57.08,1.46-4.46,2-7.32a.26.26,0,0,1,.5,0c.52,2.86,1.41,7.4,2,7.32.85-.12-.3-12.06-.3-12.06A6.92,6.92,0,0,0,39.33,55.1Z"/><path class="cls-1" d="M54.5,66.46a1.33,1.33,0,1,1-1.33-1.33A1.33,1.33,0,0,1,54.5,66.46Z"/><path class="cls-1" d="M52.62,68.27a1.65,1.65,0,0,0-1.2.5c-.47.53-1.69,4-1.33,4.1s1.8-2.63,1.8-2.63-.88,7.15-.39,7.21S52.66,74.3,53,72.94a.11.11,0,0,1,.22,0c.2,1.34.69,4.44,1.1,4.44s.09-7.46.09-7.46,2.38-2,2.42-3.66S56.45,68.63,52.62,68.27Z"/><path class="cls-1" d="M40.93,48.71a27.17,27.17,0,0,1,.56,3.69c.11,1.24.11,2.5.14,3.7a35.4,35.4,0,0,0,.83,7.2,18.21,18.21,0,0,0,2.81,6.55,14.48,14.48,0,0,0,3.65,3.59c-2.53-2.7-5.47-8.08-5.36-15.92a25,25,0,0,1,1.91-9.06c-.16-.18-.34-.35-.5-.53A18.29,18.29,0,0,1,41,40a16.22,16.22,0,0,1-.33-4.45c0-.53.11-1.06.19-1.58,0-.72.07-1.15.07-1.15-3,3.48-2.68,8.22-2.41,10.16A18,18,0,0,1,40.93,48.71Z"/><path class="cls-1" d="M45.69,47.32l.18.19A32.45,32.45,0,0,1,52.35,38c-4.15.78-8.19,3.62-9.67,4.74A19.73,19.73,0,0,0,45.69,47.32Z"/><path class="cls-1" d="M64.93,76.59h0c-.39.06-.82.1-1.27.13a35.39,35.39,0,0,1-6.09.1,20.74,20.74,0,0,1-7.2-1.76,14.53,14.53,0,0,1-5.8-4.71,19.26,19.26,0,0,1-3-6.84,36.09,36.09,0,0,1-.92-7.38c0-1.25,0-2.45-.07-3.65a26.8,26.8,0,0,0-.49-3.58,18.76,18.76,0,0,0-2.68-6.64q-.41-.57-.84-1.11a25.93,25.93,0,0,0-3.84-3.22c-.25-.13-.49-.25-.75-.36.15,0,.29.1.44.15-.55-.36-.89-.56-.89-.56C46,54.26,34.6,71,34.6,71a26.4,26.4,0,0,0-3.66-.4c-.75,0-1.5,0-2.24,0a26.91,26.91,0,0,0-5.8.94c-.66.17-1.31.38-1.95.61,11.7-1,26.48,5.2,34,6,7.79.81,11.44-2,11.44-2A9.13,9.13,0,0,1,64.93,76.59Z"/></g></g></g></svg>