<svg version="1" xmlns="http://www.w3.org/2000/svg" width="933.333" height="933.333" viewBox="0 0 700.000000 700.000000"><path d="M412.3 50.1c-3.9 5.3-7.2 8.9-21.2 23.5-13.4 13.8-15.6 18-15.6 28.9 0 6.5.5 9 2.6 13.6 3.2 6.7 14.9 19.7 16 17.7.7-1.2 3.7-11.2 11.1-37.1 1.7-5.9 3.5-10.7 4-10.7s.7.3.4.8c-.3.6-1.6 31-1.9 46.2-.1 4.1.3 4.1 8.2.2 7.6-3.8 15.5-11.3 18.7-17.8 5-10.3 3.7-18.8-5.9-38-5.6-11.2-10.6-22.6-12.1-27.7l-1.1-3.9-3.2 4.3zM288.1 88.7c-1.4 3.2-3.8 7.8-5.4 10.2-4.5 6.6-5.8 11.8-4.2 16.5 1.5 4.3 4.9 8.2 9.5 10.9 2.2 1.4 3 1.5 3.1.5.7-16.2 1.1-23.4 1.3-23.6.2-.1 1.3 4.9 2.6 11.3 1.2 6.3 2.6 11.7 3 12 .4.2 2.5-1.4 4.8-3.7 3.7-3.6 5.2-6.8 5.7-12.3.3-2.7-2.4-7.5-8.4-15.1-3.6-4.6-7.3-9.3-8.1-10.4-1.4-1.9-1.6-1.8-3.9 3.7zM138.6 106.3c.7 4.1 1.5 17 1.9 34.5.3 15.6.6 17.7 2.8 22.5 1.3 2.8 3.6 6.7 5.1 8.4 3.3 4 13.3 8.9 20.1 9.9 5 .7 16.3.9 17 .2.2-.1-2-4.6-4.9-9.8-2.9-5.2-8.7-15.8-13-23.5l-7.6-14 5.2 5.6c4.9 5.2 16.3 17.5 27.1 29.4l4.6 4.9 1.1-2.9c8.1-20.7 4.9-37.6-8.7-46.3-2.6-1.6-12-5.5-20.8-8.6-16.9-5.9-18.3-6.5-25.7-10.2l-4.7-2.3.5 2.2zM230.9 113.8c0 1.5-.2 3.6-.4 4.7s-.7 4.2-1 7c-.4 2.7-1.3 8.4-2.2 12.5-.8 4.1-1.7 8.4-1.9 9.5-.2 1.1-.8 4.2-1.3 7-2.3 12.3.4 23.1 7.5 30 5.3 5.2 15 9.8 23.3 11.1 1.8.3 4.2.7 5.2.9 2 .4 2.8 3.6-7.5-30-3.5-11.6-5.9-20.3-5.2-19.3.6.9 6.8 10.9 13.6 22.2 6.8 11.3 12.7 20.6 13.1 20.6 1.4 0 6.9-10 9-16.2 4.2-12.5 1.7-24.1-7-32.4-2.2-2.2-9.8-7.4-16.8-11.6-7.1-4.2-16.3-10.1-20.5-13.2l-7.8-5.5-.1 2.7zM348 112.2c0 3.5-21.6 37.8-34.4 54.8-15.5 20.4-20.8 33.3-20.2 48.9.7 16.3 9.7 31.8 26.3 45.1 7.5 6 16.1 11.6 16.8 10.8.5-.5 2.2-11.6 3-18.8.3-3 .7-6.6 1-8 .2-1.4.7-5 1-8 .3-3 .7-6.9.9-8.5.3-1.7.7-5.7 1.1-9 .3-3.3.8-7.1 1-8.5 1.1-7.4 3.7-28.8 3.7-30.8 0-1.3.3-2.1.5-1.8.5.5.7 2.2 1.8 12.6.4 3.6.9 7.4 1.1 8.5.2 1.1.6 4.5 1 7.5.3 3 .7 6.6.9 8 .2 1.4.7 5 1 8 .3 3 .8 6.6 1 8 .2 1.4 1.1 8.3 2 15.5.8 7.1 1.7 14.6 1.9 16.5.3 1.9.5 4.2.5 5 .1.8.5 2.1 1 2.9.8 1.2 2 .8 6.8-2.4 33.7-22.2 44.7-50.3 30.8-79-1.9-3.8-8.2-13.7-14-21.9-14.9-20.9-26.6-38.7-31.5-48.1-4.8-9.1-5-9.4-5-7.3zM472.9 118.6c-1.5 1.8-21.1 14.9-27.8 18.5-2.4 1.3-5.5 3-7 3.8-1.4.8-5.3 4.2-8.7 7.5-6.8 6.8-9 12.2-8.7 21.3.2 7.6 4.3 18.8 9.2 25.2l1.8 2.3 2.9-4.8c1.6-2.7 3.5-6.1 4.4-7.5 5.6-9.7 19.4-31.9 19.6-31.6.2.1-2.3 9-5.5 19.7s-6.5 21.9-7.4 24.7l-1.5 5.3 4.2-.6c14.7-2.1 26.3-9.1 31.1-18.8 3.5-7.2 4-13.4 2-24.2-.9-4.9-1.9-10-2.1-11.4-.3-1.4-.9-4.8-1.4-7.5-1.4-7.3-2.1-12.4-2.5-17.9-.5-5.7-.8-6.2-2.6-4zM553.9 144c-.8.5-7.4 2.4-14.5 4.3s-14.7 4.3-16.9 5.3c-5.3 2.6-9.4 8.6-10.1 15-.6 5 1.1 15.4 2.4 15.4.8 0 5.4-4 13.8-11.8 11.9-11.2 12.1-11.3 5.8-1.7-3.3 4.9-7.6 11.5-9.6 14.5-4.4 6.3-4 6.8 5.1 6.4 15.3-.7 21.1-6.8 22.5-23.4 1-11.4 1.9-18.6 2.7-21.4 1-3.5.9-3.7-1.2-2.6zM646.4 193c-1.1.4-4.7 1.1-8 1.5-3.2.4-7.2.8-8.9 1-1.6.3-8.2.7-14.5 1-19.9 1.1-29.1 4.6-35.5 13.3-1.9 2.7-4.1 7.4-4.9 10.9-1.7 6.6-2.1 19.9-.7 22.1.6 1 2.7.1 8.7-3.7 9.1-5.7 34.1-21.2 36.4-22.5.8-.5-3.3 4-9.2 10-20.4 20.9-26.7 27.9-26 28.6.4.4 4.1 1.6 8.2 2.6 13.8 3.5 25.7 1.2 33.4-6.3 6-5.7 7.1-8.2 13.1-28.5 2.9-9.6 6.4-20.4 7.8-24 1.5-3.5 2.5-6.5 2.4-6.6-.1-.1-1.1.2-2.3.6zM139.5 202.7c3.3 7.9 8.5 31.6 13.5 61.4 1.7 10.1 4.2 21.7 5.6 25.7 8.5 25.5 29.6 38.4 59.9 36.8 10.5-.6 25-3.3 25-4.8 0-.6-26.2-34.7-27.5-35.8-.4-.3-2.6-3.2-5.1-6.5-2.4-3.3-5.1-6.9-6.1-8-4.9-6-17.5-22.2-18.3-23.5-.5-.8 2 .8 5.5 3.6 3.6 2.8 13.7 10.6 22.5 17.5 8.8 6.8 16.5 12.8 17.2 13.4 1.5 1.2 2.5 2 8.3 6.5 2.5 1.9 5.2 4.1 6 4.7 7.8 6.4 14.6 11.1 15.1 10.5 2.2-2.5 4.4-18.2 4.3-31.2-.2-17.1-4.8-29.3-14.9-39.5-9.7-9.9-22.4-15.5-41-18.1-7.4-1-32.4-5.5-38.5-6.9-1.4-.3-4.7-1-7.5-1.6-7.6-1.4-19.7-5-22.8-6.6l-2.8-1.4 1.6 3.8zM550 202.7c-7.5 2.4-14.4 4.1-30.5 7.3-10.7 2.1-20.3 3.8-26.5 4.6-2.5.3-4.8.8-5.1 1-.3.1-2.8.6-5.5.9-2.7.4-8.3 1.8-12.4 3.1-25.6 8.5-38.2 27.9-37.5 57.8.1 6.1.5 12 .8 13.1.3 1.1.8 3.6 1.1 5.6.3 2 1 4.9 1.6 6.4l1 2.7 3.8-2.8c3.3-2.5 37.2-28.9 62.6-48.7 10.2-8 10.1-7.5-1.6 6.8-.9 1.1-8.6 11-17.2 22s-16.2 20.7-16.9 21.5c-.6.8-3.7 4.7-6.7 8.5-3 3.9-5.9 7.3-6.4 7.6-3.6 2.6 10.7 6.1 26.6 6.5 20.4.5 33.3-4 44.9-15.5 10.5-10.5 13.7-18.9 18.9-49.1 2.6-14.8 4.8-26.7 6.5-35.5.8-3.7 6-22.4 7-24.8.9-2.1.8-2.1-8.5 1zM79.7 214.2c.6.7 1.6 3.1 2.2 5.3.7 2.2 1.5 4.7 1.8 5.5.4.8.7 1.7.8 2 .1.3.4 1.2.8 2 .6 1.6 1.8 6.2 2.4 9.3.8 4.3 5.1 11.3 8.6 14.1 3.5 2.8 4.6 3.1 11 3.2 4 .1 9-.4 11.2-1.1l4-1.2-11.5-11.7c-6.3-6.5-11.7-12-12-12.3-.7-.9 1.2.2 15.3 9 7.1 4.3 13 7.7 13.3 7.5.7-.8.7-10.2-.1-13.8-1.1-5.4-4.3-9.8-8.8-12.4-5-2.9-7.2-3.3-20.2-4.1-5.5-.4-11.6-1.1-13.5-1.6-5-1.3-6.5-1.2-5.3.3zM290.9 271.2c-.2 3.2-2.8 16.6-4 20.6-2.3 7.2-.5 16.3 4 20 2.6 2.1 11.4 6.2 13.5 6.2 1.8 0 1.9-1.5 0-8-.2-.8-1.2-5-2.3-9.2-1.1-4.2-2.2-8.2-2.6-8.8-.3-.5-.3-1 .2-1 .4 0 3.7 5.4 7.2 12s6.7 12 7.1 12c1.7 0 6.3-11.7 6.3-16.1.1-7-2.9-10.9-14.8-18.9-5.7-3.9-10.9-7.7-11.5-8.5-1.5-1.8-3-1.9-3.1-.3zM108.1 273.2c-3.4.4-10.9 1.8-16.5 3.2-5.5 1.3-11.9 2.7-14.1 3-2.2.3-5.1.8-6.5 1.1-1.4.3-4.3.7-6.3.9-4.6.5-5.7 1.4-3.7 2.9 2.2 1.7 7.9 9.7 17.2 24.4 4.6 7.1 9.7 14.5 11.3 16.4 9.4 10.7 23.4 12.9 38.3 5.9 6.7-3.1 12.2-6.7 12.2-7.8 0-.4-5.9-4.1-13-8.2-7.2-4.1-13.8-8-14.8-8.5-.9-.6-5.2-3-9.4-5.4-4.3-2.5-7.6-4.6-7.4-4.8.1-.2 2.5.4 5.2 1.2 8.3 2.6 33.6 9.5 39.7 11l5.8 1.3-.7-4.2c-2-12.3-9.8-25.1-17.9-29.4-5.1-2.7-12.5-3.9-19.4-3zM416.1 276.2c-1.2.4-3.2 1-4.4 1.2-21.9 4-25.1 5.3-28.5 11.6-2 3.8-2.8 13.1-1.4 16.9l.8 2.3 5.5-4.3c3-2.4 7.2-5.7 9.4-7.4 2.2-1.6 4.6-3.5 5.3-4.2 1.7-1.7 2.7-1.7 1.5-.1-15.5 19.8-16.5 21.2-14.6 21.9 3.1 1.3 12.2 1 15.6-.5 7.1-2.9 9.9-8.6 12.2-24.1.2-1.8 1.8-8.3 3.1-12.6.5-1.7-1.1-2-4.5-.7zM580.5 283c-11.5 2.5-20.7 13.9-24 29.8-.8 3.6-1.3 6.8-1.1 7 .3.3 22.2-5.7 43.6-11.9 3.5-1 6.5-1.7 6.7-1.5.2.2-2.3 1.7-5.4 3.5-3.2 1.7-8.3 4.6-11.4 6.4-7.6 4.3-20.7 11.7-24.3 13.8-1.7.8-3.1 2-3.3 2.5-.4 1.2 9 6.9 15.8 9.6 7 2.7 18.9 2.9 23.9.3 8.7-4.5 10.4-6.5 25.1-29.5 4.1-6.3 9.3-13.9 11.7-16.7l4.2-5.3-4-.1c-2.2-.1-4.3-.2-4.7-.3-.5-.1-3-.6-5.8-1.1-2.7-.5-5.2-.9-5.5-1-.3-.1-2.3-.5-4.5-1-2.2-.4-8.8-1.8-14.7-3.1-10.5-2.4-16.2-2.7-22.3-1.4zM343.6 304.5c-3.6 4.6-9 15.6-11.5 23.2-3.3 10-4.9 22.6-4.7 36.9.3 12.7.4 13.4 3.3 18 6.4 10.5 15 31.6 16.7 41.1 4 22.5 4.6 27.6 5.1 46.8.5 17.6 1.5 37.3 2 38.8.2.7.6 3.4.9 6.2.3 2.7 1 7.5 1.6 10.5.6 3 1.3 6.8 1.6 8.5 3.9 22.3 17.3 50.2 31.7 65.6 9.1 9.8 26.4 22.2 36.2 25.9 1.7.7 2.5 1.7 2.5 3.5v2.5l-4.8-1.9c-18.1-7.2-37-22-48.6-38.4-20.4-28.6-29.5-65.9-31-127.2-.3-9.9-.7-19.1-1-20.5-.2-1.4-.7-4.8-1.1-7.5-.3-2.8-.8-5.7-1-6.5-.2-.8-.6-2.6-.9-4-3.9-21.6-16-48-27.9-60.8-2.3-2.4-8.5-8-13.7-12.4-11.6-9.6-10.4-8.6-17.1-13.1-6-3.9-8.1-4.8-5.4-2 .9.9 3.5 4.1 5.8 7.2 2.2 3.1 4.3 5.8 4.6 6.1.6.5 4.4 6.2 12.8 19.2 4.6 7.1 14.6 28 18.7 38.9 3.4 9.2 7.8 24.9 8.9 31.4.3 1.6.8 4.6 1.1 6.5 1.3 7.8 1.6 9.9 2.2 18.1.6 8.5.6 8.8-2.4 13.1-7.6 11-21.9 20.1-33.2 21.1-11.6 1-27.4-7.9-36.6-20.9-7-9.8-8.8-8.2-5.5 4.7 1.9 7.6 6.6 17.5 9.6 20.6.8.7 2.2 2.3 3.2 3.5 1 1.3 3.3 3.5 5.1 5l3.3 2.7-4.1 2.6c-15 9.5-34.6 30.3-45.4 48.2-3.8 6.5-11.9 23.1-13.1 27.2-.8 2.6-1.3 2.5 8 .7 7.2-1.4 17-2.1 30-2 18.1 0 23.5.4 23.5 1.9 0 .7-3.2 1.1-9.4 1.2-9.6 0-23.7.9-29.1 1.8-12.9 2.2-25.3 5-32.5 7.3l-8.4 2.8H211c16 0 31.6.8 38 1.9 1.4.2 5 .6 8 1 6.9.7 34.3 5.3 39 6.5 1.9.5 4.6 1.1 6 1.4 8.5 1.5 20.5 4.4 43 10.2 14 3.6 27.1 6.9 29 7.4 1.9.4 6.2 1.6 9.5 2.5 22.1 6.1 50.4 12.9 58.5 14.1 1.9.3 4.1.7 4.8.9 5.1 1.8 39.6 2.6 50.7 1.3 9.2-1.1 17.9-3 26.9-6 13.1-4.3 24.8-10.6 14.5-7.8-1.9.5-7.3 1.3-12.1 1.8-7.6.7-8.8.6-8.9-.8-.7-20.4-6.5-43-15.9-62.5-13.7-28.2-39-54.6-66.5-69.5-16.1-8.7-36-15.2-53.8-17.6-6.1-.8-8.6-1.1-11.6-1.3-2.3-.1-2.3-.1-1.6-9.3.9-13.2 4.9-32.3 9.7-46.5l4.1-12.2-4.5-5.3c-14.8-17.3-25.8-40.4-30.7-64.3-1.5-7.2-1.8-12.3-1.5-25.5.2-9.1.5-18.6.7-21.3.3-2.6.3-4.7.2-4.7-.1 0-1.4 1.6-2.9 3.5zM289 595.6c0 .2-.9.4-2 .4s-2-.4-2-.9.9-.7 2-.4c1.1.3 2 .7 2 .9zM441.5 632c.4.6.9.8 1.3.6 1.2-.7 4.4 2.2 4 3.7-.5 2.3-10.8-.9-10.8-3.4 0-1.3.7-1.9 2.4-1.9 1.4 0 2.8.5 3.1 1zm20.2 5.4c3.9.9 9.9 1.8 13.4 2.1 3.5.4 7 .8 7.6 1 .7.2 8.1.7 16.5 1.1 8.4.3 15.5.8 15.8 1.1.9 1-45.3-.5-52-1.6-10.7-1.8-10.9-1.9-10.3-4.1.3-1.1.9-1.8 1.3-1.5.4.3 3.9 1.1 7.7 1.9zM61 333.9c-1.4.5-7.9 3.5-14.5 6.8s-13.1 6.2-14.5 6.6l-2.5.6 3.3 2.4c1.7 1.3 7.1 6 11.8 10.3 12.5 11.4 14.6 12.6 22.1 12.2 5-.3 7.1-1 11-3.7 4.8-3.3 8.9-7.8 8-8.7-.3-.3-6.9-2.3-14.7-4.4-7.8-2.1-14.4-4.1-14.7-4.4-.3-.3 6.7-.3 15.5-.1l16.1.4-1-2.7c-1.2-3.2-5.4-9-8.3-11.5-4.9-4.1-11.6-5.6-17.6-3.8zM630.5 339c-1.6.4-4.4 1.4-6.1 2.3-3.4 1.8-10.4 8.2-10.4 9.5 0 .5 7 2.8 15.5 5.2 8.5 2.4 15.5 4.4 15.5 4.5 0 .2-7.4.1-16.5-.1L612 360l1.1 2.7c3.6 9.5 13.2 16.5 21.7 15.8 3-.3 9.1-2.6 17.8-6.9 7.4-3.6 14-6.6 14.8-6.6 3.1 0 2.3-1.8-2.2-5.3-2.6-2-7.6-6.4-11.2-9.8-10.6-10-16.1-12.6-23.5-10.9zM234 342.1c-2.5.5-6.5 1.1-9 1.5-2.5.4-5.2.8-6 1-.8.1-2.5.3-3.7.3-2 .1-1.8.5 2.1 6.3 2.3 3.5 5.9 9.2 8 12.8 4.9 8.6 9.1 11.5 16.5 11.5 5.4 0 15.1-3.5 15.1-5.4 0-.5-5-3.9-11.1-7.7-6.1-3.7-10.7-7-10.2-7.1.4-.2 6.1 1.5 12.6 3.6 9 3.1 11.9 3.7 12.3 2.7.8-2-3.2-12.6-5.7-15.2-4.7-5-10.6-6.2-20.9-4.3z"/><path d="M427 342.9c-18.3 5.1-46.8 19.6-62 31.7l-4 3.2 3.4 6.5c4.2 8.1 12.2 19.9 17.4 26l3.9 4.5 3.7-7.7c11.5-23.5 30.2-50 45-64.2 2.5-2.4 1.3-2.4-7.4 0zM134.5 353c-8.7 2.4-16.5 6.7-30.5 16.7-25.1 17.9-37.3 25.9-50.4 32.9l-7.9 4.2 4.4 1.9c8.5 3.8 27.9 16.4 57.9 37.7 11.5 8.3 18.6 11.9 27.1 14.1 24 6.2 47.2-5.1 65.8-32 5.9-8.4 6.7-10.1 4.9-10.2-.7 0-3.3-.3-5.8-.7-2.5-.3-11.9-1.5-21-2.6s-17.6-2.2-19-2.4c-1.4-.2-5-.7-8-1-10.3-1.2-15.5-1.8-18.5-2.2-1.6-.2-5.9-.7-9.5-1-3.5-.4-7.6-1-9-1.5-2.3-.7-2.2-.7 1-.9 1.9-.1 4.4-.3 5.5-.5 1.1-.3 4.3-.7 7-1 5.2-.6 10.6-1.2 16.5-2 6.6-.9 11.5-1.5 24.5-3 7.2-.9 14.6-1.8 16.5-2 1.9-.3 5.8-.8 8.5-1.1 2.8-.3 5.9-.7 7-.9 1.1-.1 2.8-.3 3.8-.4 1.7-.1 1.6-.5-.9-4.9-2.4-4.2-7-10.8-8.4-12.2-.3-.3-2-2.3-3.9-4.4-15.9-18.6-37.4-26.3-57.6-20.6zM448.9 353c-3.5 1.9-10.9 9.4-10.9 11.2 0 .4 1.1.9 2.5.9 1.4.1 2.8.2 3.3.3.7.2 6.8 1 17.2 2.3 5.4.6 6.5 1.3 2.4 1.4-1.6 0-3.8.2-4.9.4-1.1.3-4.2.7-7 1-2.7.3-5.9.8-7 1-1.1.2-3 .4-4.2.4-1.3.1-2.3.6-2.3 1.1 0 1.9 8.4 10.3 11.7 11.6 6.7 2.9 12.1 1.6 20.8-4.6 2.8-2 8.2-5.5 12-7.8 3.9-2.3 6.4-4.2 5.6-4.2-1.3 0-18.1-10.6-19.1-12.1-1.2-1.7-9.7-4.9-13-4.8-1.9 0-5.1.9-7.1 1.9zM537.2 352.6c-9.2 2.4-22.7 10.7-29.2 18.1-6.6 7.3-17 21.8-17 23.6 0 .7 5.1 1.5 13.5 2.2 3.9.4 7.7.8 8.5 1 .8.2 4 .6 7 1 3 .3 7.1.8 9 1.1 1.9.3 4.9.6 6.5.8 32.4 3.8 49.2 6.2 47.3 6.7-1.3.3-5.5.9-9.3 1.3-3.9.3-8.3.8-10 1.1-1.6.2-7 .9-12 1.5-4.9.6-10.6 1.3-12.5 1.5-10.5 1.3-12.8 1.6-16 2-5.4.7-11 1.4-17.4 2.1-3.3.3-6.7.8-7.5.9-.9.2-2.8.4-4.3.4-1.6.1-2.8.5-2.8 1s2.2 4.2 4.9 8.3c5.7 8.8 15.3 19.3 21.3 23.4 2.4 1.6 4.5 3.2 4.8 3.5 1.5 1.7 13 6.2 18.8 7.3 8.5 1.6 15.7 1.1 25.2-2 8.7-2.8 14-5.9 35-20.9 19.5-13.9 34.5-23.6 43.6-28.1l7.2-3.6-7.7-4c-8-4.2-34.3-21.5-52.1-34.3-21.9-15.8-37.5-20.3-54.8-15.9zM240.2 405.7c-4.4 2.2-6.3 5.1-11.2 17.3-2.2 5.6-4.7 11.5-5.5 13l-1.4 2.7 15.7-.2c19.5-.2 22.8-1.6 26.7-10.8 1.3-3.2 2.8-13.7 1.8-13.7-.2 0-5.7 2.7-12.3 6-6.6 3.3-12 5.7-11.9 5.3 0-.5 4.5-4.4 9.9-8.8 5.5-4.4 9.9-8.3 10-8.7 0-1.2-10-3.8-14.4-3.8-2.3 0-5.6.8-7.4 1.7zM425.8 418.6c-1.7.5 1.1 4.5 15.1 21.9 1.3 1.6 1.3 1.8.1.9-3.7-2.6-14.5-10.9-15-11.4-1.3-1.5-7.2-5.2-7.6-4.7-.3.3-.7 3.6-.8 7.4-.6 13 5.1 19 20.1 20.7 3.4.4 9.1 1.5 12.8 2.5l6.7 1.9-.7-2.7c-1.1-4.3-1.5-6.2-3.1-15.1-3-16.8-6.8-21.1-18.8-21.6-3.9-.2-7.9-.1-8.8.2zM282.3 468.6c-4.3 2.1-7.8 9.1-6.9 13.9 1.4 7.1 9 12.4 15.9 11.1 6-1.2 10.7-6.9 10.7-13.1 0-10.3-10.3-16.5-19.7-11.9z"/></svg>